<?xml version="1.0" encoding="UTF-8" standalone="no"?>
<!-- Created with Inkscape (http://www.inkscape.org/) -->

<svg
   xmlns:dc="http://purl.org/dc/elements/1.1/"
   xmlns:cc="http://creativecommons.org/ns#"
   xmlns:rdf="http://www.w3.org/1999/02/22-rdf-syntax-ns#"
   xmlns:svg="http://www.w3.org/2000/svg"
   xmlns="http://www.w3.org/2000/svg"
   xmlns:sodipodi="http://sodipodi.sourceforge.net/DTD/sodipodi-0.dtd"
   xmlns:inkscape="http://www.inkscape.org/namespaces/inkscape"
   width="200"
   height="104"
   viewBox="0 0 52.916665 27.516667"
   version="1.1"
   id="svg996"
   inkscape:version="0.92.4 (5da689c313, 2019-01-14)"
   sodipodi:docname="tengo-logo.svg">
  <defs
     id="defs990" />
  <sodipodi:namedview
     id="base"
     pagecolor="#ffffff"
     bordercolor="#666666"
     borderopacity="1.0"
     inkscape:pageopacity="0.0"
     inkscape:pageshadow="2"
     inkscape:zoom="1.979899"
     inkscape:cx="26.441945"
     inkscape:cy="86.233174"
     inkscape:document-units="mm"
     inkscape:current-layer="layer1"
     showgrid="false"
     units="px"
     inkscape:window-width="1366"
     inkscape:window-height="745"
     inkscape:window-x="-8"
     inkscape:window-y="201"
     inkscape:window-maximized="1" />
  <metadata
     id="metadata993">
    <rdf:RDF>
      <cc:Work
         rdf:about="">
        <dc:format>image/svg+xml</dc:format>
        <dc:type
           rdf:resource="http://purl.org/dc/dcmitype/StillImage" />
        <dc:title></dc:title>
      </cc:Work>
    </rdf:RDF>
  </metadata>
  <g
     inkscape:label="Capa 1"
     inkscape:groupmode="layer"
     id="layer1"
     transform="translate(0,-269.48332)">
    <g
       id="g906"
       transform="matrix(0.20470822,0,0,0.20470822,-3.9908297,218.01252)">
      <path
         style="fill:#e8f0f9;stroke-width:0.24356084"
         d="m 26.832503,385.61666 c -3.11888,-0.44756 -5.861542,-2.49329 -6.802012,-5.07354 -0.531711,-1.45878 -0.535281,-1.87181 -0.535281,-61.95767 v -60.4891 l 0.555501,-1.52404 c 0.4691,-1.28702 0.80859,-1.73839 2.182811,-2.90218 1.200141,-1.01637 2.009311,-1.49062 3.082521,-1.80665 1.42095,-0.41844 3.45155,-0.42852 86.254237,-0.42852 h 84.79897 l 1.52938,0.52312 c 1.63753,0.56011 2.28592,1.02964 10.11229,7.32272 6.94782,5.58665 20.20048,16.21157 24.60625,19.72732 23.02492,18.37356 42.74638,34.25224 43.49864,35.0228 0.92929,0.95193 1.8774,3.25202 1.8774,4.55453 0,0.46728 -0.25167,1.54005 -0.55925,2.38395 -0.52276,1.43422 -0.74289,1.68898 -3.37343,3.90401 -1.54782,1.30331 -5.9077,4.8358 -9.68863,7.84997 -6.82318,5.43946 -16.02987,12.81066 -19.5839,15.67957 -1.01864,0.82228 -4.11427,3.29726 -6.87916,5.49994 -2.7649,2.20268 -8.30131,6.63686 -12.30313,9.85372 -8.34999,6.71214 -19.5133,15.64012 -23.49502,18.7904 -2.00221,1.58413 -3.12533,2.29317 -4.23333,2.67255 l -1.50811,0.51638 -84.13751,0.0309 c -46.275697,0.017 -84.705317,-0.0506 -85.399237,-0.15017 z"
         id="path862"
         inkscape:connector-curvature="0" />
      <g
         transform="translate(0,-12.429773)"
         id="g896">
        <path
           inkscape:connector-curvature="0"
           id="path860"
           d="m 162.63412,362.55951 c -4.07892,-0.7678 -8.13802,-2.612 -10.94707,-4.97366 -1.5955,-1.34138 -1.5615,-1.89493 0.27542,-4.48475 1.58609,-2.23616 2.24473,-2.54249 3.18412,-1.48094 1.02381,1.15696 4.43288,3.1408 6.55491,3.8145 4.58004,1.45407 9.71416,1.35058 13.48988,-0.27191 1.59735,-0.68641 3.44411,-2.71222 4.12476,-4.52468 0.58779,-1.56518 1.10856,-6.46665 0.68706,-6.46665 -0.10951,0 -0.56204,0.30538 -1.00562,0.67863 -2.48755,2.09313 -7.30861,3.59146 -11.53774,3.5858 -4.0793,-0.005 -7.28829,-0.84095 -10.46134,-2.7237 -4.76583,-2.82782 -8.02193,-8.02722 -8.61462,-13.75596 -0.61199,-5.91534 1.03535,-11.19539 4.70785,-15.08958 2.11485,-2.2425 4.07095,-3.54548 6.92451,-4.61249 6.58792,-2.46338 13.98465,-1.53747 19.13719,2.39555 l 1.23573,0.94325 v -1.92971 c 0,-1.14811 0.1286,-2.05831 0.3175,-2.24721 0.43541,-0.43541 5.80876,-0.43541 6.24416,0 0.39005,0.39004 0.43944,31.60276 0.0567,35.84593 -0.29996,3.32576 -0.81643,5.1796 -2.17894,7.82123 -1.78219,3.45531 -5.20798,6.03995 -9.59883,7.24197 -2.21877,0.60741 -9.85872,0.74957 -12.59566,0.23438 z m 9.33787,-21.29218 c 5.56542,-1.71898 8.93214,-7.20877 8.15534,-13.29813 -0.56234,-4.40814 -2.7119,-7.34714 -6.75871,-9.24087 -7.31647,-3.42379 -16.28091,0.56382 -17.82154,7.92746 -1.38386,6.61438 1.6546,12.40174 7.61596,14.50616 2.33836,0.82546 6.32326,0.87313 8.80895,0.10538 z m 57.23279,10.45499 c -0.43656,-0.19419 -2.28024,-1.85351 -4.09707,-3.6874 -1.81682,-1.83388 -3.43951,-3.33434 -3.60596,-3.33434 -0.16646,0 -0.99451,0.41662 -1.84012,0.92582 -9.76429,5.87975 -22.626,2.06621 -27.60023,-8.18355 -3.31913,-6.83933 -2.45368,-14.81398 2.25864,-20.812 6.67797,-8.49999 19.64443,-9.7723 27.87064,-2.73475 6.92329,5.9229 8.92624,15.6507 4.88531,23.72661 -0.52798,1.05517 -1.1282,2.10647 -1.33381,2.33621 -0.20562,0.22974 -0.37385,0.52918 -0.37385,0.66543 0,0.13624 1.49653,1.73421 3.32562,3.55104 1.8291,1.81682 3.50651,3.6452 3.72759,4.06306 1.09565,2.07092 -1.08462,4.43223 -3.21676,3.48387 z m -15.91319,-9.02839 c 5.24837,-1.35318 9.44262,-5.91823 10.39011,-11.30866 1.5311,-8.71069 -5.25741,-16.84719 -14.05608,-16.84719 -5.36731,0 -10.64988,3.36017 -12.9608,8.24419 -3.7378,7.89967 0.57727,17.41895 8.99205,19.83694 2.02728,0.58255 5.53207,0.61685 7.63472,0.0747 z m 6.08454,-11.48533 c -0.77742,-0.31367 -0.89379,-0.56184 -1.16655,-2.48791 -0.32218,-2.27502 -1.0638,-3.89013 -2.48287,-5.40722 -1.45728,-1.55796 -3.54796,-2.62114 -5.60994,-2.85286 -0.85222,-0.0958 -1.76355,-0.28414 -2.02517,-0.41858 -1.25001,-0.64237 -1.01693,-2.87342 0.34996,-3.34992 1.19982,-0.41826 4.08641,0.10913 6.2814,1.14763 3.7586,1.77828 6.45809,5.37647 7.2162,9.61858 0.38684,2.1646 0.11135,3.22296 -0.96679,3.71419 -0.75453,0.34379 -0.82944,0.34548 -1.59624,0.0361 z M 85.657863,349.49488 c -9.59393,-2.09542 -15.55511,-10.16484 -14.97601,-20.27242 0.19298,-3.36819 0.73445,-5.51397 2.10312,-8.33438 1.55588,-3.2062 4.69442,-6.36131 7.85627,-7.89774 2.72062,-1.32203 4.60861,-1.82561 7.63365,-2.03612 8.6142,-0.59947 16.535377,5.12142 18.700137,13.50574 0.22543,0.87312 0.48148,2.55643 0.569,3.74067 0.14477,1.95895 0.114,2.1666 -0.3411,2.30198 -0.27513,0.0818 -6.75101,1.3614 -14.390857,2.84345 -7.63984,1.48205 -13.94173,2.7396 -14.00419,2.79457 -0.25838,0.22737 0.80217,1.93243 2.0538,3.30192 2.33978,2.56008 5.72972,3.93512 9.70143,3.93512 4.02103,0 6.80751,-1.08762 9.28073,-3.62246 0.895747,-0.91807 1.809547,-1.66921 2.030657,-1.66921 0.55629,0 3.90216,3.87676 3.90216,4.52132 0,0.2948 -0.79112,1.31513 -1.8086,2.33261 -1.97714,1.97713 -4.914507,3.62873 -7.848697,4.41309 -2.49683,0.66745 -7.73015,0.73841 -10.4615,0.14186 z m 3.81644,-21.72152 c 5.94958,-1.15824 10.857577,-2.14606 10.906657,-2.19514 0.0491,-0.0491 -0.262,-0.83192 -0.691277,-1.73965 -1.04235,-2.20405 -3.19022,-4.32315 -5.48224,-5.40883 -1.69548,-0.80312 -1.95725,-0.84895 -4.84867,-0.84895 -2.99712,0 -3.09529,0.0192 -5.05857,0.98951 -3.98372,1.96886 -6.26487,5.31031 -6.73095,9.85954 -0.17874,1.74456 -0.17789,1.74755 0.45427,1.59863 0.34834,-0.0821 5.50119,-1.09686 11.45078,-2.25511 z m -34.8427,21.78565 c -0.10126,-0.10127 -0.18411,-9.98693 -0.18411,-21.96815 v -21.78403 h -8.34093 -8.34092 l -0.25803,-0.67868 c -0.33399,-0.87843 -0.33357,-4.37988 5.2e-4,-5.25887 l 0.25867,-0.68034 20.1804,0.0678 20.1805,0.0678 v 3.175 3.175 l -8.399,0.0699 -8.39899,0.0699 -0.0677,21.89056 -0.0677,21.89055 -3.18932,0.0739 c -1.75413,0.0406 -3.27217,-0.009 -3.37344,-0.11024 z m 56.071177,-0.24197 c -0.09,-0.23452 -0.16362,-8.78676 -0.16362,-19.00497 0,-14.09722 0.0766,-18.65515 0.3175,-18.89607 0.4354,-0.43541 5.80875,-0.43541 6.24416,0 0.17879,0.17879 0.3175,1.03547 0.3175,1.96088 v 1.64338 l 1.7025,-1.14165 c 3.20117,-2.14662 6.04393,-2.90843 10.73292,-2.87623 2.82064,0.0194 3.62488,0.12599 5.4656,0.72464 5.10184,1.65925 8.3496,5.22285 9.61474,10.54977 0.5039,2.12169 0.53126,2.98899 0.46654,14.78624 l -0.0687,12.53234 -3.15396,0.0749 c -2.34535,0.0557 -3.20919,-0.0121 -3.36939,-0.26459 -0.11848,-0.18673 -0.21866,-5.63779 -0.22262,-12.11347 -0.008,-12.40353 -0.0702,-13.17276 -1.26029,-15.47813 -1.2545,-2.43014 -4.00313,-4.03959 -7.32839,-4.29107 -5.8151,-0.4398 -10.28779,2.40704 -11.93789,7.59837 -0.39933,1.25633 -0.48378,3.02811 -0.61792,12.96458 l -0.15538,11.50938 -3.20981,0.074 c -2.75204,0.0635 -3.23315,0.0132 -3.37344,-0.35237 z"
           style="fill:#e4edf7;stroke-width:0.26458335" />
        <path
           inkscape:connector-curvature="0"
           id="path858"
           d="m 165.62855,362.67743 c -2.9874,-0.29485 -4.82215,-0.69853 -7.39301,-1.62659 -3.43857,-1.2413 -7.47972,-4.10778 -7.47972,-5.30553 0,-0.56585 2.77949,-4.43014 3.18649,-4.43014 0.14976,0 1.07164,0.61427 2.04863,1.36504 3.50346,2.69226 7.30964,3.94244 12.11482,3.97924 6.98552,0.0535 10.5216,-2.13104 11.87782,-7.33791 0.3723,-1.42936 0.57852,-5.67929 0.27557,-5.67929 -0.0715,0 -0.69657,0.43573 -1.38906,0.96828 -5.42107,4.16909 -14.26372,4.74284 -20.8019,1.34972 -2.52382,-1.30978 -5.60789,-4.21995 -7.01529,-6.61971 -3.37591,-5.75629 -3.36975,-13.78131 0.0149,-19.43594 0.48324,-0.80733 1.72391,-2.31531 2.75704,-3.35105 6.42837,-6.44463 17.73092,-7.24744 24.97679,-1.77408 l 1.71979,1.29909 0.0782,-2.01447 c 0.043,-1.10796 0.20644,-2.16894 0.36313,-2.35774 0.42186,-0.50832 5.33558,-0.47747 5.76187,0.0362 0.23889,0.28785 0.29108,4.77424 0.21622,18.58698 -0.0967,17.83488 -0.1107,18.25086 -0.68544,20.32421 -0.32272,1.16416 -0.93706,2.86528 -1.3652,3.78026 -0.87438,1.86861 -3.13588,4.39681 -5.00701,5.59751 -3.31074,2.1245 -8.94388,3.17012 -14.25471,2.64595 z m 6.04748,-21.04874 c 5.04714,-1.49636 8.07126,-5.02298 8.69065,-10.13474 0.78575,-6.4847 -2.38797,-11.62686 -8.44419,-13.68153 -2.20061,-0.7466 -6.73135,-0.66651 -8.86354,0.15667 -5.32594,2.05621 -8.06979,6.09296 -8.06979,11.87226 0,5.72478 3.44677,10.36617 8.75893,11.79469 1.96985,0.52972 6.12943,0.52587 7.92794,-0.007 z m 53.56165,6.23041 -3.77628,-3.72066 -1.53071,0.97918 c -6.35287,4.06389 -14.64259,3.99104 -20.88408,-0.18353 -3.94201,-2.63657 -6.95142,-6.82402 -8.08246,-11.24632 -0.65447,-2.55896 -0.70006,-6.86882 -0.0988,-9.3432 0.57936,-2.38443 2.19661,-5.65572 3.7331,-7.55112 5.76537,-7.11213 15.87466,-9.22748 23.9126,-5.00366 4.90259,2.57624 8.42331,7.09656 9.81565,12.6025 0.45898,1.81504 0.5255,2.68614 0.40861,5.35115 -0.18055,4.11635 -1.03075,6.76841 -3.17168,9.89357 l -0.79066,1.15414 3.72201,3.74066 c 2.18573,2.19667 3.79181,4.02921 3.8911,4.43976 0.19387,0.80152 -0.41828,2.19127 -1.07644,2.44383 -0.23557,0.0904 -0.84845,0.16435 -1.36196,0.16435 -0.84521,0 -1.29144,-0.35251 -4.70996,-3.72065 z m -11.08975,-5.14267 c 2.3661,-0.79427 3.77664,-1.63351 5.49843,-3.27145 1.77506,-1.6886 3.24987,-4.02757 3.93632,-6.24278 0.83903,-2.7076 0.79103,-6.47205 -0.11521,-9.03382 -3.64379,-10.30044 -16.48544,-13.24829 -24.18254,-5.55119 -7.92836,7.92836 -4.37103,21.25816 6.50423,24.37223 0.65484,0.18751 2.36026,0.35158 3.78981,0.36459 2.11336,0.0192 2.96736,-0.0999 4.56896,-0.63758 z m 5.49278,-11.79006 c -0.78723,-0.29318 -0.97219,-0.67694 -1.18139,-2.45122 -0.23642,-2.00507 -1.53747,-4.62238 -2.91753,-5.86918 -1.39533,-1.2606 -3.50756,-2.22533 -5.30044,-2.42089 -1.81997,-0.19852 -2.60129,-0.68554 -2.59606,-1.6182 0.008,-1.461 0.98654,-1.96929 3.13632,-1.62945 3.05154,0.48238 4.86916,1.36048 6.97613,3.37018 2.26759,2.16293 3.6122,4.83695 4.01708,7.98881 0.2467,1.92046 -0.74794,3.1462 -2.13411,2.62995 z M 86.991243,349.5614 c -5.7354,-1.09853 -10.13338,-3.88982 -12.99173,-8.24556 -1.50308,-2.2905 -2.27962,-4.23481 -2.76935,-6.93401 -1.49691,-8.25024 1.65996,-16.19742 8.08325,-20.349 5.33637,-3.44906 12.73875,-3.82428 18.26769,-0.92597 5.633827,2.95329 9.217477,8.4822 9.703757,14.97111 l 0.15217,2.03051 -1.02863,0.26805 c -0.56574,0.14742 -6.981737,1.4212 -14.257787,2.83061 -7.27604,1.40941 -13.33832,2.66306 -13.47174,2.7859 -0.43337,0.39897 0.70053,2.37629 2.2529,3.92866 2.50948,2.50948 5.64457,3.72055 9.63134,3.72055 4.0792,0 6.72471,-1.01762 9.442477,-3.63215 l 1.86256,-1.79181 1.82161,1.98438 c 1.00188,1.0914 1.82176,2.15892 1.82196,2.37225 1.9e-4,0.21333 -0.86285,1.23413 -1.91788,2.26842 -2.07914,2.0383 -4.606627,3.47373 -7.474477,4.24495 -1.55611,0.41847 -7.74001,0.73898 -9.12812,0.47311 z m 1.80114,-21.38124 c 6.28466,-1.2281 11.542997,-2.30482 11.685197,-2.3927 0.1596,-0.0986 0.091,-0.58571 -0.17921,-1.27281 -2.520117,-6.40774 -9.908377,-9.17594 -16.353067,-6.12712 -3.73469,1.7668 -6.22135,5.58827 -6.65209,10.22287 -0.0922,0.99147 -0.11353,1.80268 -0.0475,1.80268 0.066,0 5.26202,-1.00481 11.54668,-2.23292 z m -33.9535,20.96091 c -0.0703,-0.1867 -0.15739,-10.04304 -0.19348,-21.90299 l -0.0656,-21.56354 -8.27621,-0.0699 -8.27622,-0.0699 -0.2566,-0.6749 c -0.33227,-0.87394 -0.33096,-3.84998 0.002,-4.72595 l 0.25867,-0.68035 19.91581,0.0678 19.91576,0.0678 v 2.91041 2.91042 l -8.33437,0.13229 -8.33438,0.13229 -0.13229,21.82813 -0.13229,21.82812 -2.98152,0.0749 c -2.23853,0.0562 -3.01339,-0.01 -3.10938,-0.26458 z m 56.149417,0.1538 c -0.10151,-0.10151 -0.18456,-8.53481 -0.18456,-18.74068 0,-14.07975 0.0766,-18.6327 0.3175,-18.87361 0.43245,-0.43245 5.28255,-0.43245 5.715,0 0.18469,0.18469 0.3175,1.07009 0.3175,2.11667 0,0.98954 0.0704,1.79917 0.15638,1.79917 0.086,0 0.65155,-0.42444 1.25677,-0.94319 2.69506,-2.31002 6.30459,-3.4094 11.15456,-3.39743 3.03879,0.007 3.68092,0.0919 5.51069,0.72439 5.15021,1.7802 8.39884,5.43977 9.55173,10.75998 0.36902,1.70289 0.41961,3.72957 0.35671,14.2875 l -0.0733,12.30312 h -3.04271 -3.04271 l -0.13229,-12.43542 c -0.12676,-11.91559 -0.1561,-12.49834 -0.70197,-13.94081 -1.38072,-3.64861 -3.9374,-5.37239 -8.42615,-5.68113 -2.31846,-0.15946 -4.94552,0.31349 -6.68637,1.20375 -1.55947,0.79751 -3.32007,2.49926 -4.13526,3.99702 -1.49487,2.74657 -1.54168,3.16865 -1.71666,15.47951 l -0.16171,11.37708 -2.92429,0.0743 c -1.60836,0.0409 -3.00735,-0.009 -3.10886,-0.11024 z"
           style="fill:#d9e4f3;stroke-width:0.26458335" />
        <path
           inkscape:connector-curvature="0"
           id="path856"
           d="m 163.5059,362.28727 c -4.60417,-0.80922 -8.90046,-2.71139 -11.41354,-5.05331 l -1.46883,-1.36879 1.35171,-1.9336 c 0.74343,-1.06347 1.5321,-2.04738 1.75258,-2.18646 0.29976,-0.18908 0.79309,0.0502 1.95559,0.94837 3.55023,2.74309 6.79057,3.89789 11.53476,4.11077 4.4259,0.19861 7.18954,-0.4294 9.78946,-2.22453 2.14829,-1.4833 3.64611,-5.34164 3.64611,-9.39229 0,-1.14089 -0.0704,-2.07435 -0.15638,-2.07435 -0.086,0 -0.62722,0.40303 -1.2027,0.89562 -3.47024,2.97039 -9.10395,4.50688 -14.23673,3.88279 -4.68423,-0.56955 -7.90691,-2.1032 -11.15285,-5.30757 -7.67214,-7.57391 -6.77978,-21.03444 1.82331,-27.50314 6.64647,-4.9975 17.31802,-4.9025 23.4607,0.20885 0.72242,0.60113 1.40149,1.00495 1.50906,0.89738 0.10756,-0.10756 0.23087,-1.14765 0.27402,-2.31131 l 0.0785,-2.11574 h 2.77812 2.77813 l 0.0774,17.19791 c 0.0823,18.29228 0.004,19.87747 -1.16086,23.37008 -1.66548,4.99533 -5.71202,8.54333 -11.08738,9.7214 -2.68592,0.58865 -8.24598,0.70968 -10.93013,0.23792 z M 171.20293,341.93 c 5.74713,-1.21782 9.45081,-6.05015 9.45081,-12.33082 0,-3.86058 -1.22196,-6.80206 -3.82096,-9.19773 -6.04651,-5.57348 -17.09216,-3.89452 -20.65675,3.13987 -2.67716,5.28313 -1.39548,12.38417 2.86983,15.9 3.03339,2.50038 7.64588,3.4446 12.15707,2.48868 z m 58.00185,9.34551 c -0.29104,-0.15849 -2.15296,-1.89615 -4.1376,-3.86148 l -3.60843,-3.57333 -1.15407,0.79061 c -1.5655,1.07247 -2.92388,1.73013 -5.12281,2.48021 -1.61057,0.54939 -2.33513,0.63098 -5.55625,0.62572 -4.24618,-0.007 -5.58426,-0.31463 -8.99584,-2.06855 -2.64608,-1.36037 -5.91557,-4.50111 -7.48038,-7.18581 -4.34893,-7.46135 -3.18885,-16.80619 2.84102,-22.88537 3.05302,-3.078 5.85077,-4.58739 10.09828,-5.44804 3.91124,-0.79252 8.30343,-0.19311 11.94244,1.6298 4.97441,2.49186 8.50761,6.78276 10.01559,12.16345 0.74494,2.65805 0.80636,6.82522 0.13828,9.38078 -0.47822,1.82925 -1.93144,5.10679 -2.8136,6.34568 -0.29274,0.4111 -0.53225,0.90258 -0.53225,1.09216 0,0.18958 1.66687,2.02589 3.70417,4.0807 3.08752,3.11407 3.70276,3.86473 3.69575,4.50925 -0.01,0.87789 -0.39123,1.47342 -1.23097,1.92066 -0.70782,0.37699 -1.11607,0.37779 -1.80333,0.004 z m -16.48333,-7.9235 c 5.10523,-1.05682 9.60938,-5.30983 11.16192,-10.53955 0.65205,-2.19645 0.56548,-6.31761 -0.17855,-8.50009 -1.29122,-3.78752 -3.76929,-6.69299 -7.28342,-8.53961 -5.50399,-2.89227 -12.07647,-2.06442 -16.67927,2.10088 -5.45159,4.93341 -6.5304,12.82513 -2.59363,18.97298 1.95271,3.04945 5.41364,5.55404 8.8113,6.37653 1.90069,0.46011 4.88656,0.51701 6.76165,0.12886 z m 6.60326,-12.89712 c -0.27617,-0.27618 -0.55415,-1.05131 -0.6415,-1.78881 -0.56194,-4.74473 -4.02106,-8.20386 -8.7658,-8.7658 -2.03563,-0.24109 -2.83535,-1.36343 -1.747,-2.45178 0.62817,-0.62817 1.41236,-0.65621 3.64309,-0.13027 4.63533,1.09287 8.23625,4.62664 9.44553,9.26939 0.55078,2.11457 0.51606,3.18537 -0.12404,3.82546 -0.6584,0.6584 -1.1816,0.67048 -1.81028,0.0418 z m -164.172787,18.6165 c -0.40287,-0.40288 -0.43985,-2.25094 -0.43985,-21.9845 v -21.54464 h -8.01922 c -6.05277,0 -8.13158,-0.0822 -8.47741,-0.33504 -0.38915,-0.28455 -0.44661,-0.71315 -0.3813,-2.84427 l 0.0769,-2.50923 19.9099,-0.0678 19.90989,-0.0678 v 2.75149 c 0,2.26492 -0.074,2.77989 -0.41851,2.91209 -0.23019,0.0883 -3.97861,0.1606 -8.32985,0.1606 h -7.91132 l -0.0707,21.67386 c -0.0389,11.92062 -0.16969,21.77304 -0.29071,21.89427 -0.12101,0.12122 -1.32206,0.26101 -2.669,0.31063 -2.01276,0.0741 -2.52733,0.0119 -2.88883,-0.34963 z m 29.98724,-0.14773 c -5.33478,-1.37185 -9.72138,-4.84907 -12.00309,-9.51474 -1.6645,-3.4036 -2.12453,-5.77266 -1.95208,-10.05291 0.22201,-5.51057 1.77977,-9.21653 5.40796,-12.86574 6.3392,-6.37593 17.26449,-6.87705 24.097777,-1.10531 2.88297,2.4351 4.96856,5.74413 5.86253,9.30161 0.59196,2.35564 0.86235,4.69665 0.59234,5.12839 -0.11828,0.18914 -5.68616,1.39331 -13.155777,2.84521 -7.12289,1.3845 -13.57578,2.64436 -14.33977,2.79969 -1.72896,0.35151 -1.76692,0.67707 -0.32989,2.82904 2.92295,4.37716 8.75802,6.47215 14.58592,5.23687 2.43866,-0.5169 4.29281,-1.52888 6.272137,-3.42326 l 1.69226,-1.61963 1.689,1.83982 c 0.92896,1.01191 1.68901,2.03928 1.68901,2.28306 0,0.24377 -0.84982,1.2449 -1.88848,2.22472 -2.18935,2.06532 -5.140377,3.61982 -8.033397,4.2317 -2.68516,0.56791 -7.70474,0.49966 -10.18645,-0.13852 z m 15.279677,-22.87691 c 0.52769,-0.18345 0.38911,-0.98857 -0.464017,-2.69584 -0.99746,-1.99609 -3.44408,-4.36902 -5.45294,-5.28871 -5.86297,-2.68416 -13.11317,-0.23765 -15.92014,5.3721 -1.11833,2.23498 -1.93377,6.17935 -1.40837,6.81241 0.23128,0.27867 2.44779,-0.0787 11.60032,-1.87024 6.22294,-1.21811 11.463247,-2.26648 11.645147,-2.32972 z m 10.97841,23.19712 c -0.2629,-0.16691 -0.3183,-4.11348 -0.26458,-18.84751 l 0.0679,-18.6364 h 2.77813 2.77812 l 0.0773,2.05052 c 0.0425,1.12779 0.15057,2.05052 0.24014,2.05052 0.0896,0 0.77186,-0.46983 1.51617,-1.04406 4.86495,-3.75329 12.8363,-4.57397 18.5332,-1.90806 2.38676,1.1169 4.94869,3.62471 6.08857,5.95996 1.79869,3.68492 1.80481,3.7405 1.92238,17.4454 0.0805,9.37782 0.0292,12.47633 -0.21137,12.76614 -0.23305,0.2808 -0.93728,0.3827 -2.64483,0.3827 -1.27997,0 -2.51555,-0.0723 -2.74573,-0.1606 -0.37242,-0.14291 -0.41873,-1.38854 -0.42051,-11.31093 -0.001,-6.46893 -0.11808,-11.87239 -0.27847,-12.87013 -0.75316,-4.68504 -3.53245,-7.36395 -8.26853,-7.96987 -5.30567,-0.6788 -10.20256,1.71306 -12.18704,5.95269 -1.12833,2.41057 -1.22438,3.5827 -1.22438,14.94187 0,8.0332 -0.0809,10.86292 -0.3175,11.09947 -0.36006,0.36006 -4.89751,0.44206 -5.43899,0.0983 z"
           style="fill:#d1def0;stroke-width:0.26458335" />
        <path
           inkscape:connector-curvature="0"
           id="path854"
           d="m 163.01507,362.05238 c -4.035,-0.76722 -7.81681,-2.38989 -10.28159,-4.41153 -1.95555,-1.60396 -1.98275,-1.77953 -0.58017,-3.74506 1.8158,-2.54462 1.70809,-2.5145 3.59012,-1.00407 3.41872,2.7437 7.45372,4.07915 12.3426,4.08498 3.43653,0.004 5.28054,-0.33324 7.48028,-1.3684 1.77243,-0.83409 3.57182,-2.82138 4.28816,-4.73598 0.58378,-1.56031 1.25846,-6.60588 0.98026,-7.33086 -0.23967,-0.62458 -0.52883,-0.53868 -1.8096,0.53757 -2.6833,2.25481 -7.38021,3.79655 -11.56613,3.79655 -8.092,0 -14.49945,-4.18141 -17.39592,-11.35234 -0.88761,-2.19751 -1.18414,-3.96269 -1.18201,-7.0362 0.003,-4.76953 1.52632,-8.83927 4.53778,-12.12575 6.43335,-7.02087 18.39181,-7.90324 25.76116,-1.90082 0.80644,0.65686 1.52747,1.19428 1.60228,1.19428 0.0748,0 0.13603,-0.98822 0.13603,-2.19604 0,-1.35526 0.12156,-2.3176 0.3175,-2.51354 0.48197,-0.48197 4.81922,-0.42613 5.22874,0.0673 0.24505,0.29526 0.29207,4.52794 0.20207,18.1901 -0.13156,19.97096 -0.1258,19.9038 -2.05884,23.98627 -1.78395,3.76762 -5.09145,6.37449 -9.64259,7.6 -2.18885,0.58941 -9.39996,0.74843 -11.95013,0.26353 z m 9.30306,-20.28138 c 6.53757,-2.02051 10.00119,-9.11897 7.92847,-16.24886 -2.1116,-7.26365 -11.38157,-10.79169 -18.79866,-7.15454 -4.40319,2.15922 -6.72337,6.08774 -6.72337,11.38402 0,4.90812 2.12953,8.76743 6.08929,11.0355 3.13746,1.79707 7.62997,2.18128 11.50427,0.98388 z m 53.19165,5.84 c -2.0548,-2.03729 -3.88805,-3.70417 -4.07387,-3.70417 -0.18583,0 -0.86872,0.36524 -1.51754,0.81164 -5.22302,3.59354 -12.9782,4.02558 -18.87028,1.05126 -4.01625,-2.02739 -7.38775,-5.76151 -9.08759,-10.06498 -1.939,-4.90898 -1.66665,-10.2226 0.78591,-15.33295 2.25813,-4.70521 6.92654,-8.47505 12.14931,-9.81081 4.43337,-1.13386 9.46879,-0.52791 13.6693,1.64493 2.62832,1.35958 5.88806,4.48256 7.40539,7.09471 2.36433,4.0703 3.17222,9.42062 2.07667,13.75295 -0.61773,2.44279 -1.81018,5.19895 -2.82493,6.52935 -0.35617,0.46696 -0.64757,0.99656 -0.64757,1.17689 0,0.18034 1.66687,2.00909 3.70416,4.06389 3.21591,3.24356 3.70417,3.84786 3.70417,4.58457 0,1.09678 -0.80621,1.90689 -1.89773,1.90689 -0.72492,0 -1.34887,-0.50514 -4.5754,-3.70417 z m -11.44128,-4.50295 c 3.69918,-1.14886 7.2134,-4.11198 8.8717,-7.48047 4.96596,-10.0873 -2.13602,-21.61866 -13.31458,-21.61866 -13.34166,0 -19.94247,15.77932 -10.58334,25.2996 2.38628,2.42736 5.30894,3.90985 8.73125,4.42885 1.41092,0.21396 4.60921,-0.10578 6.29497,-0.62932 z m 5.22924,-12.80939 c -0.17301,-0.20846 -0.41653,-1.10043 -0.54116,-1.98217 -0.64091,-4.5342 -4.05616,-7.94665 -8.47459,-8.46762 -1.73292,-0.20433 -2.37617,-0.60344 -2.37617,-1.47433 0,-0.99176 0.62368,-1.27747 2.45161,-1.12308 4.81232,0.40645 9.05453,3.87179 10.51053,8.58576 0.59495,1.92622 0.69511,4.04196 0.21412,4.52295 -0.43326,0.43326 -1.40142,0.39988 -1.78434,-0.0615 z M 85.800613,348.94212 c -9.68882,-2.1074 -15.65836,-10.76861 -14.45492,-20.97266 0.56953,-4.82919 2.13905,-8.1798 5.30431,-11.32361 3.96131,-3.93449 9.3538,-5.72349 15.08561,-5.00478 8.411377,1.05469 15.012277,8.27857 15.194177,16.62818 l 0.0375,1.7206 -14.347537,2.80725 c -7.89114,1.54398 -14.43672,2.89643 -14.54572,3.00543 -0.37517,0.37516 1.29232,3.04247 2.8026,4.48304 2.65049,2.52813 5.57449,3.62126 9.68649,3.62126 4.15233,0 7.60266,-1.32766 9.799087,-3.77061 0.64185,-0.7139 1.32887,-1.25888 1.52672,-1.21108 0.19785,0.0478 1.03205,0.84337 1.8538,1.76793 1.7471,1.96573 1.74348,1.9925 -0.56976,4.21515 -1.61175,1.54863 -4.765097,3.23473 -7.318177,3.91304 -2.55622,0.67914 -7.22918,0.73531 -10.05417,0.12086 z m 3.25635,-20.49738 c 6.28467,-1.2281 11.546027,-2.30669 11.691927,-2.39686 0.43359,-0.26797 0.31424,-0.75748 -0.65907,-2.70301 -1.157657,-2.31401 -3.216737,-4.31045 -5.592197,-5.42206 -1.48424,-0.69457 -2.16129,-0.84232 -4.34059,-0.94726 -3.12663,-0.15056 -5.36619,0.42523 -7.81822,2.01005 -1.87175,1.20977 -2.99679,2.54994 -4.07521,4.85448 -1.20471,2.5744 -1.81568,6.83759 -0.97991,6.83759 0.19064,0 5.48861,-1.00482 11.77327,-2.23293 z m -33.95327,20.43234 c -0.0704,-0.18702 -0.15761,-10.04363 -0.19371,-21.90358 l -0.0656,-21.56354 -8.33437,-0.13229 -8.33438,-0.1323 v -2.64583 -2.64583 h 19.71146 19.71146 v 2.64583 2.64583 l -8.33438,0.1323 -8.33437,0.13229 -0.13229,21.82812 -0.13229,21.82813 -2.71671,0.0754 c -2.02605,0.0563 -2.74928,-0.011 -2.8448,-0.26458 z m 56.128647,-0.0882 c -0.0902,-0.23508 -0.16402,-8.54965 -0.16402,-18.47682 0,-13.68565 0.0768,-18.12616 0.3175,-18.3669 0.19772,-0.19772 1.17593,-0.3175 2.59292,-0.3175 1.41699,0 2.3952,0.11978 2.59292,0.3175 0.18895,0.18895 0.3175,1.09949 0.3175,2.24896 0,1.0623 0.0704,1.93145 0.15638,1.93145 0.086,0 0.65155,-0.42447 1.25677,-0.94328 1.40895,-1.20779 4.32508,-2.63406 6.52435,-3.19104 2.12079,-0.5371 6.97402,-0.60323 8.99583,-0.12258 4.14785,0.9861 7.62006,3.65579 9.36745,7.20239 1.64388,3.33649 1.76148,4.6008 1.68249,18.08889 l -0.0697,11.90625 -2.62397,0.0763 c -1.92096,0.0558 -2.6819,-0.0151 -2.84022,-0.26458 -0.11894,-0.18747 -0.21949,-5.5796 -0.22344,-11.98252 -0.008,-12.26421 -0.0718,-13.04519 -1.26106,-15.34583 -0.77685,-1.50277 -2.32115,-2.89592 -4.16381,-3.75626 -1.44962,-0.67684 -1.85178,-0.74123 -4.63021,-0.74143 -2.25605,-1.7e-4 -3.41682,0.12578 -4.48974,0.48713 -3.32236,1.11896 -5.81657,3.64584 -6.94579,7.03676 -0.54791,1.64532 -0.58579,2.33243 -0.7229,13.11339 l -0.1447,11.37708 -2.68025,0.075 c -2.2685,0.0635 -2.70545,0.009 -2.84427,-0.35237 z"
           style="fill:#c6d5ec;stroke-width:0.26458335" />
        <path
           inkscape:connector-curvature="0"
           id="path852"
           d="m 165.52965,362.15228 c -3.14614,-0.28325 -6.25788,-1.13313 -9.08528,-2.48139 -2.49787,-1.19111 -5.15938,-3.15387 -5.15938,-3.80485 0,-0.38688 2.18191,-3.60269 2.63398,-3.88209 0.13461,-0.0832 0.63884,0.19265 1.12049,0.61299 3.78985,3.30738 9.7332,5.05951 15.34021,4.52235 5.20507,-0.49865 8.41511,-2.60983 9.75411,-6.4151 0.5803,-1.64912 1.04108,-6.80554 0.68992,-7.72064 -0.13045,-0.33995 -0.50556,-0.15642 -1.95166,0.95486 -3.3247,2.55493 -6.80669,3.67379 -11.42364,3.67074 -7.27076,-0.005 -12.67917,-2.98336 -16.09309,-8.86285 -3.23994,-5.57985 -3.05316,-13.4569 0.45063,-19.00476 2.1861,-3.46145 6.20974,-6.3064 10.59155,-7.48886 2.36979,-0.6395 7.69795,-0.63936 10.02041,2.5e-4 2.4615,0.67791 4.70148,1.81448 6.61209,3.35501 0.92595,0.74659 1.78387,1.25711 1.90649,1.13449 0.12261,-0.12262 0.25799,-1.2343 0.30083,-2.47041 l 0.0779,-2.24748 h 2.51354 2.51354 l -0.005,17.99167 c -0.006,19.40296 -0.005,19.39619 -1.45148,23.23683 -1.18731,3.15342 -4.13831,6.09705 -7.53895,7.52011 -2.78594,1.16584 -7.7504,1.74523 -11.8168,1.37913 z m 7.26157,-20.30456 c 5.12012,-1.84998 8.16008,-6.39734 8.17481,-12.22839 0.0135,-5.32725 -2.30607,-9.16159 -6.94654,-11.48312 -6.2667,-3.1351 -14.52067,-0.95113 -17.84522,4.72178 -2.13094,3.63617 -2.27401,8.91478 -0.35243,13.00277 1.30796,2.78256 4.78665,5.54232 8.03086,6.37113 2.02967,0.51853 7.03562,0.30338 8.93852,-0.38417 z m 52.71856,5.4987 c -2.0548,-2.0373 -3.88768,-3.70417 -4.07305,-3.70417 -0.18538,0 -0.71605,0.28434 -1.17929,0.63186 -1.26002,0.94529 -3.26487,1.88891 -5.47912,2.57885 -2.82187,0.87926 -7.47679,0.87988 -10.31208,10e-4 -3.39069,-1.0506 -5.45695,-2.29354 -7.9571,-4.7865 -3.83789,-3.82685 -5.26027,-7.06923 -5.46809,-12.46477 -0.10974,-2.84905 -0.0463,-3.6213 0.44411,-5.40898 1.57841,-5.75338 5.63015,-10.39886 11.04942,-12.6686 0.90212,-0.37783 2.74759,-0.87904 4.10104,-1.11379 9.05818,-1.57111 18.07393,4.01953 20.90283,12.96175 0.75376,2.38265 0.9304,6.95305 0.36667,9.48691 -0.42791,1.92338 -1.90655,5.29729 -3.0439,6.94544 -0.30126,0.43656 -0.54853,0.90034 -0.54948,1.03061 -10e-4,0.13027 1.7384,2.00216 3.86526,4.15975 3.55769,3.60912 3.85228,3.98159 3.68289,4.65646 -0.2751,1.09612 -0.63674,1.39797 -1.67481,1.39797 -0.85336,0 -1.28106,-0.33885 -4.6753,-3.70416 z m -11.9536,-3.85874 c 6.04162,-1.5577 10.66026,-7.15312 11.16901,-13.5311 0.57534,-7.21267 -4.3386,-13.95593 -11.5277,-15.81914 -2.31462,-0.59989 -6.11754,-0.43368 -8.42396,0.36817 -7.37658,2.56454 -11.70889,10.28988 -9.95157,17.74556 1.22986,5.2179 5.68159,9.87916 10.73234,11.23748 1.93348,0.51998 5.98327,0.51949 8.00188,-0.001 z m 5.77253,-13.53762 c -0.13057,-0.25466 -0.31042,-1.11065 -0.39966,-1.9022 -0.46452,-4.12032 -4.30333,-7.93376 -8.45683,-8.40093 -1.89068,-0.21266 -2.35157,-0.49031 -2.25152,-1.35633 0.0811,-0.70217 0.10376,-0.70968 2.10432,-0.69784 1.79222,0.0106 2.25174,0.12536 4.03856,1.00846 2.56937,1.26985 4.34041,3.02796 5.56497,5.52434 0.98351,2.00498 1.53746,4.72354 1.16672,5.72576 -0.25779,0.69686 -1.4264,0.76219 -1.76656,0.0987 z M 86.029563,348.80343 c -9.40804,-2.04606 -15.16121,-9.80773 -14.57046,-19.65716 0.19177,-3.19718 0.69355,-5.14859 2.02143,-7.86131 5.30023,-10.82783 20.76018,-12.94647 28.811997,-3.94842 2.52433,2.82098 4.54246,7.87427 4.54246,11.37405 0,0.64533 -0.0893,1.17491 -0.19844,1.17685 -0.84557,0.015 -28.520447,5.59078 -28.714997,5.78533 -0.4103,0.4103 0.85966,2.63586 2.52282,4.42115 2.53035,2.71615 5.94901,4.08174 10.19791,4.07359 3.98684,-0.008 7.00151,-1.14384 9.528047,-3.59098 0.822,-0.79618 1.62826,-1.41436 1.79168,-1.37375 0.33032,0.0821 3.0209,3.0934 3.0209,3.381 0,0.42917 -2.72856,2.97556 -4.22441,3.94238 -3.652237,2.36055 -9.902527,3.32692 -14.728937,2.27727 z m 2.92744,-20.13191 c 6.41315,-1.2489 11.811857,-2.41676 11.997117,-2.59525 0.72005,-0.69371 -1.140237,-4.27609 -3.212387,-6.18613 -4.57355,-4.21575 -11.74564,-4.3428 -16.65625,-0.29507 -1.30238,1.07354 -2.94181,3.62225 -3.59453,5.5882 -0.85323,2.56982 -1.06496,5.75898 -0.38236,5.75898 0.10347,0 5.43525,-1.02183 11.84841,-2.27073 z m -33.71576,-1.18625 c 0,-14.27911 -0.0916,-21.61971 -0.27389,-21.96041 -0.26171,-0.489 -0.63718,-0.51178 -8.43836,-0.51178 -7.20086,0 -8.18342,-0.0494 -8.32507,-0.41851 -0.20829,-0.54279 -0.20829,-3.64726 0,-4.19006 0.14444,-0.3764 2.12771,-0.41851 19.71146,-0.41851 h 19.55086 v 2.51354 2.51354 h -8.14917 c -5.98546,0 -8.23346,0.0843 -8.46667,0.3175 -0.24176,0.24177 -0.3175,5.47982 -0.3175,21.96042 v 21.64292 h -2.64583 -2.64583 z m 56.156007,2.99396 0.0679,-18.45469 h 2.51354 2.51354 l 0.0768,2.18281 c 0.0458,1.30014 0.18925,2.18282 0.35481,2.18282 0.15289,0 0.75426,-0.40769 1.3364,-0.90598 1.43732,-1.23029 4.21939,-2.65377 6.30173,-3.22436 2.413,-0.66119 7.73914,-0.66431 9.92188,-0.006 3.74204,1.12892 6.65661,3.39881 8.27717,6.44635 1.79099,3.36804 1.73733,2.86679 1.84185,17.20282 l 0.095,13.03073 h -2.65961 -2.65962 l -0.004,-11.57552 c -0.004,-12.50879 -0.12289,-13.83056 -1.44413,-16.08507 -2.05316,-3.50346 -6.49739,-5.20058 -11.43692,-4.36742 -4.69362,0.79168 -7.89676,3.67224 -9.28264,8.3478 -0.3095,1.04415 -0.41812,3.67856 -0.51548,12.50157 l -0.12336,11.17864 h -2.6215 -2.62149 l 0.0679,-18.45469 z"
           style="fill:#b5c8e6;stroke-width:0.26458335" />
        <path
           inkscape:connector-curvature="0"
           id="path850"
           d="m 165.4402,361.87742 c -2.81363,-0.25715 -6.41713,-1.24385 -8.99583,-2.46323 -1.89189,-0.8946 -4.549,-2.81703 -4.8009,-3.47345 -0.077,-0.20076 0.41388,-1.14129 1.09092,-2.09008 l 1.23098,-1.72507 1.90096,1.44912 c 3.45959,2.63727 7.45828,3.87567 12.48429,3.8664 8.86554,-0.0164 12.83229,-3.83866 12.83229,-12.36498 0,-3.0743 -0.24627,-3.28368 -2.02286,-1.71986 -1.66718,1.46751 -4.92318,3.05745 -7.38113,3.60429 -2.97241,0.6613 -7.71968,0.43558 -10.60659,-0.50432 -4.24142,-1.38089 -7.82447,-4.41826 -9.85189,-8.3515 -1.44705,-2.8073 -1.9584,-5.08544 -1.93433,-8.6177 0.0302,-4.42576 1.06227,-7.5571 3.59312,-10.90126 5.76095,-7.61228 18.56793,-8.88613 26.14976,-2.60099 2.08108,1.72515 2.3185,1.5768 2.3185,-1.4487 v -2.39986 l 2.31511,0.0764 2.3151,0.0765 0.0777,15.47813 c 0.0865,17.23428 -0.097,21.13924 -1.139,24.24335 -2.45841,7.3235 -9.35739,10.80074 -19.57617,9.86681 z m 6.52052,-19.51323 c 5.71129,-1.58369 9.28455,-6.42096 9.30159,-12.59195 0.0108,-3.91801 -0.92916,-6.44845 -3.37794,-9.09343 -5.05835,-5.46361 -14.19313,-5.71079 -19.85383,-0.53723 -4.02292,3.67672 -5.01734,10.52583 -2.33269,16.06649 1.35561,2.79775 4.80614,5.46245 8.11129,6.26403 2.10984,0.51168 6.10802,0.45875 8.15158,-0.10791 z m 53.80448,4.71764 c -2.03339,-2.03729 -3.90016,-3.70416 -4.14836,-3.70416 -0.24821,0 -1.2023,0.47061 -2.12021,1.04579 -3.67232,2.30119 -8.0897,3.27085 -12.24957,2.68891 -4.43172,-0.61997 -7.56884,-2.18085 -10.7234,-5.33548 -3.48082,-3.48089 -5.28659,-7.89082 -5.28659,-12.91058 0,-3.07205 0.51551,-5.31328 1.86551,-8.11052 1.86589,-3.86618 4.65809,-6.62981 8.58554,-8.49769 5.94884,-2.82926 13.0119,-2.27273 18.50542,1.45811 2.87499,1.95251 5.74651,5.87745 6.92045,9.45923 0.68833,2.10015 0.76776,2.69917 0.76671,5.78243 -10e-4,2.92759 -0.095,3.71528 -0.63177,5.29167 -0.74193,2.17906 -1.4053,3.55537 -2.44598,5.07476 -0.41665,0.6083 -0.75754,1.2648 -0.75754,1.45888 0,0.19408 1.61702,1.95857 3.59339,3.92108 1.97636,1.96251 3.70593,3.85216 3.84349,4.19922 0.35231,0.88892 -0.33117,1.88252 -1.29496,1.88252 -0.57977,0 -1.46586,-0.74223 -4.42213,-3.70417 z m -12.03854,-3.35278 c 1.92863,-0.5286 4.60112,-1.95322 6.13902,-3.27251 1.68373,-1.44438 3.78239,-4.65539 4.44517,-6.80123 1.78478,-5.77845 0.38048,-11.40198 -3.91506,-15.67794 -3.36289,-3.34756 -6.81909,-4.66996 -11.56225,-4.42391 -3.08166,0.15986 -5.19034,0.80539 -7.46895,2.28648 -6.70793,4.36012 -9.08996,12.70294 -5.63401,19.73252 3.3111,6.73494 10.79955,10.12902 17.99608,8.15659 z m 5.71234,-14.15869 c -0.07,-0.33687 -0.19619,-1.14908 -0.2805,-1.80492 -0.50148,-3.90067 -4.41155,-7.8309 -8.29014,-8.3329 -2.30783,-0.2987 -2.47435,-0.36862 -2.3844,-1.00121 0.0693,-0.48697 0.27834,-0.59995 1.23775,-0.66878 1.49715,-0.10741 4.33546,0.76212 5.92549,1.81531 1.71842,1.13824 3.23175,2.92849 4.22326,4.99607 0.68013,1.41826 0.83665,2.07894 0.85058,3.5902 0.0158,1.71657 -0.0258,1.85817 -0.56888,1.9354 -0.43377,0.0617 -0.619,-0.0758 -0.71316,-0.52917 z M 86.065203,348.53722 c -5.72598,-1.27913 -10.02066,-4.5358 -12.38674,-9.39289 -4.64847,-9.54241 -1.20499,-20.96072 7.62424,-25.28133 10.54823,-5.16182 22.498827,0.51146 24.875337,11.80901 0.58474,2.77978 0.53056,3.85666 -0.20295,4.03342 -0.32742,0.0789 -6.783527,1.34843 -14.346897,2.82117 -7.56835,1.4737 -13.84114,2.81995 -13.95073,2.99407 -0.46586,0.74011 0.92781,3.22372 2.88242,5.13664 1.5675,1.53407 4.40825,3.02588 6.64282,3.48845 1.95343,0.40437 5.16739,0.35543 7.1358,-0.10866 2.31923,-0.5468 4.14948,-1.54206 5.891557,-3.20372 0.82136,-0.78345 1.56015,-1.42446 1.64173,-1.42446 0.0816,0 0.77339,0.7215 1.53733,1.60333 l 1.389,1.60334 -1.75807,1.71537 c -2.09527,2.04439 -5.069387,3.57162 -8.166297,4.19346 -2.45626,0.49321 -6.63087,0.49927 -8.80855,0.0128 z m 3.04271,-19.61455 c 6.47567,-1.25747 11.936327,-2.4366 12.134777,-2.6203 0.5097,-0.47181 -0.21372,-2.55434 -1.617607,-4.65668 -2.02682,-3.03518 -5.43788,-4.93104 -9.32655,-5.18368 -5.49041,-0.3567 -10.15887,2.31966 -12.444,7.13394 -1.37322,2.89307 -1.89746,7.60851 -0.84627,7.61195 0.17913,5.3e-4 5.62397,-1.02777 12.09965,-2.28523 z m -33.60614,-1.75073 c -0.002,-13.06962 -0.1023,-21.65299 -0.25467,-21.89427 -0.21103,-0.3342 -1.55802,-0.41777 -8.52876,-0.52917 l -8.27814,-0.13229 v -2.11667 -2.11666 l 19.38073,-0.0679 19.38073,-0.0679 v 2.25067 2.25068 h -8.0509 c -6.96621,0 -8.10691,0.056 -8.46666,0.41577 -0.37117,0.37117 -0.41578,2.72716 -0.41578,21.96042 v 21.54463 h -2.38125 -2.38125 l -0.004,-21.49739 z m 56.160037,3.30729 0.068,-18.1901 h 2.24896 2.24896 l 0.0768,2.18281 c 0.0924,2.62424 0.32377,2.73433 2.3053,1.09689 3.0369,-2.50954 6.16336,-3.51258 10.97932,-3.52241 4.86887,-0.01 7.5633,0.92874 10.51786,3.66414 1.85691,1.71917 3.0518,3.82601 3.77613,6.65813 0.48318,1.88923 0.52267,2.95994 0.52267,14.17213 v 12.12851 h -2.38125 -2.38125 l -0.004,-11.44323 c -0.004,-12.15382 -0.11246,-13.44382 -1.32886,-15.82816 -2.42663,-4.75659 -9.68774,-6.41906 -15.51368,-3.55193 -2.92973,1.44181 -5.01976,4.11003 -5.92928,7.56956 -0.19588,0.74507 -0.35094,5.11874 -0.43279,12.20741 l -0.12755,11.04635 h -2.3567 -2.35671 l 0.068,-18.1901 z"
           style="fill:#aac0e3;stroke-width:0.26458335" />
      </g>
    </g>
  </g>
</svg>
