<?xml version="1.0" encoding="UTF-8" standalone="no"?>
<!-- Created with Inkscape (http://www.inkscape.org/) -->

<svg
   xmlns:dc="http://purl.org/dc/elements/1.1/"
   xmlns:cc="http://creativecommons.org/ns#"
   xmlns:rdf="http://www.w3.org/1999/02/22-rdf-syntax-ns#"
   xmlns:svg="http://www.w3.org/2000/svg"
   xmlns="http://www.w3.org/2000/svg"
   xmlns:sodipodi="http://sodipodi.sourceforge.net/DTD/sodipodi-0.dtd"
   xmlns:inkscape="http://www.inkscape.org/namespaces/inkscape"
   width="200"
   height="123"
   viewBox="0 0 52.916666 32.54375"
   version="1.1"
   id="svg972"
   inkscape:version="0.92.4 (5da689c313, 2019-01-14)"
   sodipodi:docname="tengo-logo.svg">
  <defs
     id="defs966" />
  <sodipodi:namedview
     id="base"
     pagecolor="#ffffff"
     bordercolor="#666666"
     borderopacity="1.0"
     inkscape:pageopacity="0.0"
     inkscape:pageshadow="2"
     inkscape:zoom="1.4"
     inkscape:cx="101.01738"
     inkscape:cy="79.735407"
     inkscape:document-units="mm"
     inkscape:current-layer="layer1"
     showgrid="false"
     units="px"
     inkscape:window-width="958"
     inkscape:window-height="1048"
     inkscape:window-x="2319"
     inkscape:window-y="0"
     inkscape:window-maximized="0" />
  <metadata
     id="metadata969">
    <rdf:RDF>
      <cc:Work
         rdf:about="">
        <dc:format>image/svg+xml</dc:format>
        <dc:type
           rdf:resource="http://purl.org/dc/dcmitype/StillImage" />
        <dc:title></dc:title>
      </cc:Work>
    </rdf:RDF>
  </metadata>
  <g
     inkscape:label="Capa 1"
     inkscape:groupmode="layer"
     id="layer1"
     transform="translate(0,-264.45625)">
    <path
       inkscape:connector-curvature="0"
       id="path923"
       d="M 1.0261886,296.76385 C 0.63672302,296.56977 0.39499666,296.32247 0.15350743,295.87109 L -2.25284e-6,295.58411 V 280.6999 265.8157 L 0.15350743,265.52872 c 0.24148923,-0.45139 0.48321559,-0.69868 0.87268117,-0.89276 l 0.3606397,-0.17971 H 18.806436 36.226069 l 0.343065,0.14758 c 0.50332,0.21653 15.906196,14.78321 16.164022,15.28651 0.244677,0.47762 0.244677,1.14151 0,1.61913 -0.257826,0.5033 -15.660702,15.06998 -16.164022,15.28651 l -0.343065,0.14758 H 18.806436 1.3868283 Z"
       style="fill:#f8d09b;stroke-width:0.06971525" />
    <path
       inkscape:connector-curvature="0"
       id="path921"
       d="m 1.2522636,296.76318 c -0.40917466,-0.1457 -0.76111919,-0.46555 -0.96711622,-0.87893 L 0.10457721,295.52187 V 280.6999 265.87793 l 0.18057017,-0.36237 c 0.0993096,-0.1993 0.29439816,-0.45619 0.43352125,-0.57086 0.54885117,-0.45243 -0.84973116,-0.42163 18.24607237,-0.40185 l 17.356896,0.018 0.288786,0.15445 c 0.298641,0.15971 15.651664,14.62849 15.89895,14.98325 0.402403,0.57732 0.402403,1.42544 0,2.00276 -0.247286,0.35476 -15.600309,14.82353 -15.89895,14.98325 l -0.288786,0.15445 -17.393943,0.0122 c -14.9703294,0.0105 -17.433177,-0.002 -17.6754304,-0.088 z"
       style="fill:#f6af59;stroke-width:0.06971525" />
    <path
       inkscape:connector-curvature="0"
       id="path919"
       d="m 1.428697,296.73899 c -0.5391283,-0.164 -1.02882577,-0.62726 -1.17350851,-1.11016 -0.11635749,-0.38834 -0.11635749,-29.46951 0,-29.85786 0.1047639,-0.34968 0.48503368,-0.79062 0.85031081,-0.98598 l 0.2887858,-0.15445 17.2870979,-0.018 c 15.407645,-0.016 17.32728,-0.006 17.657039,0.0896 0.29864,0.0868 0.487194,0.21799 0.978314,0.68054 1.089007,1.02569 10.656987,10.06963 12.835291,12.13228 1.16679,1.10486 2.179938,2.08319 2.251423,2.17407 0.31964,0.40636 0.415235,1.04802 0.233057,1.56438 -0.168001,0.47617 0.842591,-0.509 -9.658673,9.41552 -2.77901,2.62637 -5.32599,5.03257 -5.659938,5.3471 -0.482689,0.45462 -0.681835,0.59405 -0.971227,0.67999 -0.324858,0.0965 -2.215456,0.10747 -17.553645,0.10212 -9.4542571,-0.003 -17.2682056,-0.0299 -17.364327,-0.0591 z"
       style="fill:#faa000;stroke-width:0.06971525;fill-opacity:1" />
    <path
       inkscape:connector-curvature="0"
       id="path917"
       d="m 42.200484,286.92808 -0.813053,-0.81307 -0.394051,0.12394 c -0.504953,0.15883 -1.062421,0.12104 -1.569403,-0.10638 -0.354342,-0.15894 -0.412547,-0.16579 -0.76689,-0.0902 -0.754584,0.16106 -1.745441,0.0594 -2.476918,-0.25416 -1.856582,-0.79582 -2.901269,-2.89671 -2.40509,-4.83671 0.44464,-1.73852 1.778615,-2.92263 3.574857,-3.17322 1.662627,-0.23196 3.489724,0.7752 4.237695,2.33601 0.323804,0.67566 0.436077,1.27417 0.395499,2.10844 -0.03357,0.6903 -0.02661,0.7372 0.162416,1.09656 0.368492,0.70054 0.340852,1.4235 -0.07984,2.08685 l -0.210581,0.33203 0.806176,0.81621 c 0.443376,0.44892 0.806149,0.86193 0.806149,0.91781 0,0.1448 -0.143365,0.26891 -0.310602,0.26891 -0.0899,0 -0.446195,-0.30291 -0.956366,-0.81306 z m -1.023846,-1.45589 c 0.568666,-0.40173 0.782541,-1.24317 0.466115,-1.8339 -0.558284,-1.0423 -2.045373,-1.03356 -2.580391,0.0152 -0.274979,0.53902 -0.142495,1.28061 0.303041,1.69618 0.463243,0.4321 1.293502,0.48828 1.811235,0.12255 z m -3.650427,-1.15257 -0.0195,-1.00539 -0.644867,-0.0201 c -0.511725,-0.0159 -0.644867,-1.4e-4 -0.644867,0.0762 0,0.16621 0.265282,0.87598 0.463533,1.24025 0.220278,0.40471 0.704152,0.87523 0.800748,0.77864 0.03536,-0.0354 0.05554,-0.51671 0.04487,-1.06968 z m 0.891469,0.81866 c -0.202836,-0.70495 -0.202467,-0.97676 0.0026,-1.70205 0.03591,-0.12721 0.01634,-0.15686 -0.103288,-0.15686 -0.143945,0 -0.147555,0.0266 -0.147555,1.08304 0,1.07768 0,1.08265 0.146001,1.0049 0.10616,-0.0568 0.134143,-0.11932 0.102576,-0.22903 z m -2.200622,-0.0713 c 0,-0.0138 -0.09212,-0.20768 -0.204732,-0.43091 -0.11259,-0.22323 -0.257141,-0.6198 -0.321222,-0.88126 l -0.116489,-0.47539 h -0.515362 c -0.283436,0 -0.515361,0.0172 -0.515361,0.0383 0,0.0848 0.241357,0.50402 0.475337,0.82551 0.297007,0.40815 1.197829,1.10283 1.197829,0.92373 z m -0.766863,-3.14701 v -0.73201 h -0.508933 c -0.302856,0 -0.542791,0.0339 -0.592564,0.0837 -0.08722,0.0872 -0.119124,1.06742 -0.04134,1.27009 0.03365,0.0877 0.155117,0.11027 0.592591,0.11027 h 0.550248 z m 2.076464,0.0174 -0.01976,-0.71458 h -0.697144 -0.69717 l -0.01976,0.71458 -0.01976,0.71458 h 0.736878 0.736878 z m 1.768392,0.56086 0.27353,-0.15373 -0.02003,-0.56085 -0.02002,-0.56086 -0.679727,-0.0199 -0.679727,-0.0199 v 0.73454 0.73453 H 38.5953 c 0.31026,0 0.500632,-0.0418 0.699752,-0.15372 z m 2.066215,-0.66544 -0.02003,-0.61 -0.578257,-0.0203 -0.578257,-0.0203 0.02055,0.50822 0.02055,0.50822 0.403062,0.0501 c 0.221701,0.0276 0.456971,0.0816 0.52287,0.11997 0.213718,0.12456 0.230081,0.0827 0.20966,-0.53594 z m -5.670504,-1.72237 c 0.06701,-0.24754 0.212821,-0.6425 0.324067,-0.8777 0.111219,-0.23519 0.202229,-0.4413 0.202229,-0.45802 0,-0.0789 -0.430149,0.20652 -0.766363,0.50852 -0.336477,0.30223 -0.906803,1.06851 -0.906803,1.21836 0,0.0324 0.230633,0.0589 0.512516,0.0589 h 0.512516 z m 1.85089,-0.59566 c 0,-0.67437 -0.02556,-1.04573 -0.07217,-1.04573 -0.360772,0 -1.039023,1.04098 -1.215087,1.86489 l -0.0484,0.22657 h 0.667818 0.667843 z m 1.882325,0.95207 c 0,-0.16414 -0.266758,-0.87609 -0.464113,-1.2387 -0.184206,-0.33841 -0.585133,-0.7591 -0.723492,-0.7591 -0.04024,0 -0.06727,0.42019 -0.06727,1.04573 v 1.04573 h 0.627425 c 0.478762,0 0.62745,-0.0222 0.62745,-0.0937 z m 1.672586,0.0414 c -0.0026,-0.14483 -0.425168,-0.75978 -0.747997,-1.08593 -0.326834,-0.33017 -0.98838,-0.78801 -0.912627,-0.6316 0.284966,0.58843 0.438897,0.97307 0.533095,1.33221 l 0.114776,0.4376 h 0.506667 c 0.278641,0 0.506402,-0.0235 0.506086,-0.0523 z m -13.071036,6.89792 c -0.268418,-0.0689 -0.678172,-0.22687 -0.910597,-0.35101 -0.460239,-0.2458 -1.146606,-0.80941 -1.145025,-0.94025 0.0026,-0.14566 0.70323,-0.88346 0.839955,-0.88346 0.07275,0 0.297587,0.12574 0.499658,0.27941 0.514992,0.39163 0.994018,0.55717 1.612273,0.55717 1.289286,0 1.960608,-0.56289 2.047902,-1.71713 0.02134,-0.28256 0.01502,-0.51375 -0.01423,-0.51375 -0.02922,0 -0.165499,0.0986 -0.302804,0.21921 -0.784754,0.68901 -2.144498,0.79011 -3.251238,0.24172 -1.616515,-0.80098 -2.288812,-2.80929 -1.502898,-4.48961 0.232636,-0.49737 0.858532,-1.1944 1.310392,-1.45928 1.058126,-0.62027 2.500026,-0.57248 3.403588,0.11282 l 0.341115,0.25873 0.07022,-0.31755 0.07019,-0.31755 h 0.661809 0.66181 l 0.01976,3.17204 c 0.01291,2.06362 -0.0069,3.33039 -0.05636,3.6252 -0.201043,1.19608 -0.937474,2.0595 -2.080233,2.43895 -0.632509,0.21002 -1.640335,0.24738 -2.275295,0.0843 z m 1.615462,-4.30071 c 0.95821,-0.28456 1.536888,-1.36953 1.252397,-2.34813 -0.164312,-0.56524 -0.447855,-0.91054 -0.956339,-1.16463 -0.365699,-0.18274 -0.514597,-0.21733 -0.935524,-0.21733 -1.143365,0 -1.93497,0.76952 -1.93634,1.88231 -0.0026,1.3712 1.222781,2.24959 2.575806,1.84778 z m -15.895577,1.49855 c -0.993439,-0.17638 -1.978394,-0.94606 -2.461451,-1.92345 -0.267154,-0.54055 -0.268972,-0.54984 -0.268972,-1.3844 0,-0.82059 0.0058,-0.85245 0.250501,-1.36471 0.366753,-0.76791 0.90683,-1.32029 1.651981,-1.68959 l 0.59657,-0.29565 h 0.80831 c 0.778536,0 0.826228,0.009 1.295083,0.23816 0.630876,0.30866 1.266916,0.94492 1.561367,1.56184 0.118729,0.24881 0.199199,0.49461 0.178805,0.54621 -0.02029,0.0516 -1.070616,0.50166 -2.333816,1.00012 -1.500053,0.59193 -2.297429,0.94067 -2.298746,1.00539 0,0.0545 0.132483,0.22797 0.296875,0.38549 0.334791,0.32078 0.861615,0.52629 1.349151,0.52629 0.340562,0 1.025743,-0.21642 1.208316,-0.38167 0.207367,-0.18765 0.379506,-0.11633 0.83956,0.34784 0.522687,0.52737 0.519683,0.56356 -0.0766,0.92495 -0.705154,0.42737 -1.813897,0.6422 -2.596938,0.50318 z m 0.3545,-4.04441 c 0.776454,-0.31889 1.411731,-0.61683 1.411731,-0.66207 0,-0.25559 -0.615778,-0.52267 -1.200359,-0.52063 -0.499973,0.002 -0.875105,0.14512 -1.256982,0.48041 -0.450675,0.39569 -0.825095,1.40402 -0.488143,1.31452 0.06711,-0.0178 0.757299,-0.29333 1.533753,-0.61223 z m -6.8361607,3.88756 c -0.108242,-0.0801 -0.1192823,-0.45898 -0.1353289,-4.6535 l -0.01739,-4.56635 -1.2497364,-0.0191 c -0.7775347,-0.0119 -1.2845962,-0.048 -1.3420109,-0.0957 -0.1322459,-0.10976 -0.1298482,-1.47529 0.00263,-1.58537 0.068639,-0.057 1.0718275,-0.0739 3.6077674,-0.0608 l 3.5126995,0.0181 v 0.83658 0.83659 l -1.342037,0.0189 -1.3420106,0.0189 v 4.59724 c 0,4.47382 -0.00369,4.59919 -0.1348545,4.66942 -0.1945879,0.10414 -1.4145235,0.0924 -1.5597859,-0.015 z m 11.1926367,0.0292 c -0.06901,-0.0438 -0.08397,-0.73552 -0.06972,-3.22326 l 0.01818,-3.16749 0.575807,-0.0203 c 0.56416,-0.0198 0.577202,-0.0166 0.644867,0.1614 0.03797,0.0999 0.06906,0.38353 0.06906,0.63026 0,0.2526 0.03046,0.44862 0.06972,0.44862 0.03834,0 0.06972,-0.0296 0.06972,-0.0657 0,-0.16558 0.803857,-0.91803 1.172744,-1.09773 0.358242,-0.17453 0.468671,-0.19299 1.162706,-0.19441 0.663206,-10e-4 0.810629,0.0202 1.090588,0.15948 0.419741,0.20881 0.807915,0.59556 0.992886,0.98926 0.139887,0.29772 0.148556,0.43978 0.169714,2.78598 0.02082,2.29501 0.01344,2.4787 -0.100469,2.56204 -0.133274,0.0975 -1.117938,0.12499 -1.259143,0.0352 -0.05965,-0.0379 -0.08853,-0.63931 -0.10458,-2.17753 -0.02055,-1.97721 -0.03183,-2.14159 -0.161546,-2.36183 -0.218038,-0.37015 -0.467195,-0.51723 -0.933363,-0.55095 -0.81416,-0.0589 -1.572433,0.38796 -1.894076,1.11619 -0.153615,0.34783 -0.164445,0.46894 -0.191664,2.14636 -0.02002,1.22545 -0.05354,1.79366 -0.108321,1.82896 -0.107319,0.0692 -1.10284,0.0654 -1.213084,-0.005 z"
       style="fill:#cd704a;stroke-width:0.06971525" />
    <path
       inkscape:connector-curvature="0"
       id="path915"
       d="m 42.199404,286.85727 -0.81416,-0.81417 -0.419767,0.12709 c -0.528036,0.15988 -1.084186,0.11343 -1.552804,-0.12969 -0.329469,-0.17094 -0.346227,-0.17249 -0.807441,-0.0747 -0.59454,0.12599 -0.975073,0.12595 -1.570141,-1.4e-4 -2.249104,-0.4766 -3.695984,-2.64729 -3.231055,-4.84741 0.405618,-1.91946 2.103631,-3.29695 4.049721,-3.28526 1.11085,0.007 2.01544,0.38758 2.833816,1.1933 0.930227,0.91583 1.291421,1.87306 1.223466,3.24227 -0.0341,0.68737 -0.02424,0.78384 0.09625,0.93065 0.159149,0.19412 0.344725,0.78229 0.344725,1.09266 0,0.32884 -0.175037,0.84799 -0.390914,1.15951 l -0.191321,0.27608 0.731292,0.74544 c 0.871733,0.88861 0.911572,0.93915 0.855554,1.08518 -0.09952,0.25931 -0.34707,0.10941 -1.157224,-0.70076 z m -1.04287,-1.29705 c 1.259222,-0.83333 0.706023,-2.76886 -0.791421,-2.76886 -1.397423,0 -2.023977,1.64727 -0.999552,2.62791 0.321986,0.30823 0.509459,0.37117 1.042132,0.34992 0.36591,-0.0146 0.520183,-0.0576 0.748841,-0.20897 z m -3.580022,-1.20608 v -1.10963 l -0.714587,-0.0199 c -0.659412,-0.0183 -0.714587,-0.01 -0.714587,0.11092 0,0.34951 0.429095,1.35631 0.718856,1.68669 0.226365,0.2581 0.549088,0.49527 0.63496,0.46665 0.0498,-0.0166 0.07536,-0.40162 0.07536,-1.13476 z m 0.80196,1.0305 0.155143,-0.12561 -0.119361,-0.49102 c -0.108742,-0.44747 -0.109981,-0.52752 -0.01396,-0.90268 0.05805,-0.22642 0.115989,-0.45873 0.128821,-0.51625 0.03046,-0.1368 -0.356292,-0.18782 -0.43866,-0.0579 -0.06922,0.10918 -0.08247,2.10454 -0.01449,2.17257 0.07262,0.0726 0.135145,0.0563 0.30233,-0.0791 z m -2.021975,-0.19042 c 0,-0.0204 -0.08387,-0.20084 -0.18634,-0.40086 -0.102498,-0.20003 -0.270184,-0.63035 -0.372655,-0.95627 l -0.186315,-0.59258 -0.568507,-0.0202 c -0.491279,-0.0175 -0.568508,-0.005 -0.568508,0.0955 0,0.2128 0.487353,0.92106 0.881904,1.28166 0.446669,0.40823 1.000421,0.73638 1.000421,0.59284 z m -0.851733,-3.25687 -0.01976,-0.7843 -0.556308,-0.0206 c -0.699357,-0.026 -0.733427,0.011 -0.733427,0.79514 0,0.82173 -0.0245,0.7941 0.706893,0.7941 h 0.62226 z m 2.071748,-0.0174 v -0.76686 h -0.766863 -0.766864 l -0.02003,0.69219 c -0.01107,0.3807 -0.0037,0.7347 0.01607,0.78667 0.02806,0.0732 0.205628,0.09 0.786968,0.0747 l 0.750711,-0.0198 z m 1.781803,0.62488 0.280143,-0.17685 -0.02002,-0.60745 -0.02003,-0.60744 -0.686868,-0.0201 c -0.446564,-0.013 -0.720937,0.008 -0.78428,0.0608 -0.06993,0.058 -0.09744,0.25401 -0.09744,0.69406 0,0.33726 0.01897,0.66282 0.04232,0.72347 0.03294,0.0858 0.149109,0.11028 0.524241,0.11028 0.395842,0 0.531988,-0.0316 0.762094,-0.17686 z m 2.0874,-0.6512 c 0,-0.44653 -0.0273,-0.64154 -0.09797,-0.7002 -0.06147,-0.051 -0.301671,-0.0737 -0.644867,-0.0608 l -0.546902,0.0205 v 0.55772 0.55773 l 0.383432,0.0445 c 0.210872,0.0245 0.461873,0.0774 0.557731,0.11758 0.336188,0.14104 0.348572,0.12197 0.348572,-0.53694 z m -5.957551,-1.23389 c 0.108031,-0.029 0.171822,-0.15192 0.263411,-0.50744 0.06648,-0.25803 0.229764,-0.68562 0.36288,-0.9502 0.133115,-0.26458 0.242042,-0.50834 0.242042,-0.54169 0,-0.12938 -0.747681,0.35072 -1.113643,0.71508 -0.479237,0.47717 -0.85645,1.15466 -0.698962,1.25541 0.113301,0.0725 0.713559,0.0908 0.944272,0.0288 z m 2.039549,-0.0435 c 0.05778,-0.0578 0.08366,-0.41364 0.08366,-1.1503 0,-1.01965 -0.0061,-1.06665 -0.139229,-1.06665 -0.371732,0 -1.047296,0.97615 -1.269103,1.83379 -0.07362,0.28468 -0.07122,0.34463 0.01607,0.39979 0.152851,0.0967 1.20879,0.0833 1.308679,-0.0166 z m 1.886409,0.0215 c 0.249236,-0.15792 -0.325595,-1.53341 -0.832051,-1.99096 -0.475837,-0.42987 -0.514518,-0.3715 -0.536809,0.80974 -0.02371,1.25354 -0.02941,1.24384 0.738828,1.24231 0.294424,-5.3e-4 0.57794,-0.0281 0.630032,-0.0611 z m 1.731029,-0.0516 c 0.114012,-0.29714 -0.791368,-1.40676 -1.465219,-1.79572 -0.185155,-0.10687 -0.351866,-0.17907 -0.370494,-0.16045 -0.01871,0.0186 0.07425,0.24884 0.206392,0.51159 0.13214,0.26274 0.295478,0.68164 0.362932,0.93087 0.06748,0.24923 0.171295,0.49236 0.230712,0.54029 0.06097,0.0492 0.300485,0.0871 0.550011,0.0871 0.344408,0 0.451649,-0.0251 0.485666,-0.11372 z m -13.0005,6.76978 c -0.241252,-0.0524 -0.612721,-0.17495 -0.825516,-0.27237 -0.43086,-0.19726 -1.280486,-0.842 -1.280486,-0.97171 0,-0.10345 0.708158,-0.81077 0.811736,-0.81077 0.04147,0 0.197328,0.0973 0.346385,0.21618 0.530802,0.42339 0.917343,0.5728 1.567612,0.60592 1.028536,0.0524 1.769788,-0.27637 2.083289,-0.92395 0.156988,-0.32427 0.29532,-1.5016 0.17646,-1.5016 -0.02951,0 -0.177646,0.112 -0.329153,0.24888 -1.064186,0.96142 -2.9795,0.80909 -4.118017,-0.32753 -1.465351,-1.46287 -1.172376,-4.01378 0.591958,-5.15412 1.077255,-0.69625 2.555412,-0.63677 3.539233,0.14244 0.320985,0.25422 0.349995,0.25758 0.349995,0.0405 0,-0.0934 0.03107,-0.25149 0.06906,-0.3514 0.06767,-0.17799 0.08068,-0.18125 0.644867,-0.1614 l 0.575806,0.0203 0.01976,3.13719 c 0.02161,3.41833 -0.0061,3.78971 -0.333315,4.46511 -0.624895,1.28992 -2.244783,1.95556 -3.889756,1.59836 z m 1.735666,-4.26639 c 0.405513,-0.17937 0.806361,-0.57926 0.991542,-0.98913 0.220226,-0.48746 0.20186,-1.25337 -0.04132,-1.72386 -0.356977,-0.69069 -1.006429,-1.07098 -1.829021,-1.07098 -0.837953,0 -1.472439,0.37911 -1.818586,1.08662 -0.50859,1.03952 0.02292,2.37479 1.098097,2.75842 0.464561,0.16575 1.145289,0.13976 1.599283,-0.0611 z m -16.232687,1.41251 c -1.179068,-0.26613 -2.15733,-1.19458 -2.495968,-2.36885 -0.08969,-0.31108 -0.11093,-0.57615 -0.08537,-1.06517 0.03001,-0.57369 0.0649,-0.71342 0.293608,-1.17616 0.353525,-0.71533 0.889281,-1.25092 1.60342,-1.60294 0.547718,-0.26999 0.563158,-0.27309 1.360666,-0.27309 0.771448,0 0.827044,0.01 1.273635,0.22977 0.607741,0.29903 1.210845,0.90083 1.508273,1.50502 0.124763,0.25343 0.210529,0.4872 0.190557,0.5195 -0.02003,0.0323 -1.0493,0.46057 -2.287416,0.95172 -1.238143,0.49115 -2.296848,0.93518 -2.352735,0.98674 -0.08756,0.0808 -0.04735,0.14627 0.291316,0.47427 0.685207,0.66369 1.558442,0.77494 2.466193,0.3142 l 0.441558,-0.22414 0.403299,0.3668 c 0.534623,0.48626 0.565504,0.54715 0.360165,0.71003 -0.72365,0.57402 -2.038812,0.86275 -2.9712,0.6523 z m 0.315715,-3.8083 c 0.755691,-0.31012 1.447565,-0.61082 1.537442,-0.66822 l 0.163443,-0.10437 -0.163443,-0.17756 c -0.60097,-0.65288 -1.879875,-0.57183 -2.582235,0.16364 -0.442112,0.46298 -0.729079,1.35036 -0.436657,1.35036 0.05907,0 0.725732,-0.25374 1.48145,-0.56385 z m -6.6601755,3.71359 c -0.067296,-0.0427 -0.090641,-1.08076 -0.1045795,-4.65242 L 7.180673,275.1575 5.8560789,275.1226 4.5315111,275.0877 v -0.76687 -0.76687 h 3.5206046 3.5206303 v 0.76687 0.76687 l -1.324594,0.0349 -1.3245935,0.0349 -0.017917,4.55982 c -0.012648,3.22705 -0.040657,4.5872 -0.095674,4.65349 -0.086557,0.1043 -1.35176,0.13496 -1.5067716,0.0365 z m 11.2236495,0.011 c -0.0679,-0.0274 -0.08714,-0.72667 -0.08714,-3.16654 v -3.13138 h 0.520394 c 0.62558,0 0.66426,0.0433 0.665815,0.74486 0.0026,0.5646 0.07973,0.75229 0.209817,0.50201 0.159096,-0.3061 0.561947,-0.75626 0.860798,-0.96187 0.967406,-0.6656 2.507061,-0.53639 3.195773,0.26819 0.415025,0.48488 0.426987,0.56916 0.455629,3.20926 0.02998,2.76503 0.07633,2.58164 -0.652351,2.58164 -0.713032,0 -0.654458,0.17954 -0.656329,-2.01177 -0.0026,-1.9919 -0.03694,-2.3514 -0.259459,-2.64945 -0.257141,-0.34441 -0.484507,-0.45709 -0.978552,-0.48499 -0.570246,-0.0322 -1.106107,0.17393 -1.496074,0.57545 -0.522712,0.53822 -0.607161,0.96063 -0.60919,3.04699 -0.0026,1.24715 -0.01607,1.44478 -0.111667,1.48145 -0.130033,0.0499 -0.931493,0.047 -1.057468,-0.004 z"
       style="fill:#ac5065;stroke-width:0.06971525" />
    <path
       inkscape:connector-curvature="0"
       id="path913"
       d="m 42.200484,286.78865 -0.813053,-0.81307 -0.394051,0.12394 c -0.51133,0.16083 -1.069746,0.12144 -1.555122,-0.1097 -0.353236,-0.16821 -0.387779,-0.17188 -0.801723,-0.0851 -0.861984,0.18065 -1.731635,0.061 -2.618729,-0.36027 -0.677909,-0.32194 -1.483769,-1.11697 -1.80586,-1.78156 -0.617437,-1.2741 -0.560392,-2.70713 0.157015,-3.94274 0.299088,-0.51515 1.043528,-1.21093 1.574277,-1.47138 1.666289,-0.81769 3.465193,-0.53549 4.736272,0.74298 0.899926,0.90516 1.227577,1.78848 1.16592,3.14333 -0.03257,0.71593 -0.02213,0.82078 0.09496,0.96551 0.156751,0.19358 0.341906,0.78368 0.341906,1.08967 0,0.32869 -0.18252,0.87797 -0.381219,1.1473 -0.0971,0.13158 -0.176512,0.26945 -0.176512,0.30637 0,0.0369 0.364302,0.43598 0.809549,0.88678 0.453177,0.45883 0.788944,0.85295 0.762753,0.89533 -0.109744,0.17754 -0.32881,0.0302 -1.096385,-0.73737 z m -1.204047,-1.06131 c 0.517785,-0.23518 0.937974,-0.88334 0.936894,-1.44519 0,-0.61612 -0.524716,-1.32804 -1.092538,-1.48572 -1.109481,-0.30808 -2.123287,0.50507 -2.030143,1.62834 0.08832,1.0651 1.221674,1.74049 2.185787,1.30257 z m -3.357662,-0.25764 c 0.08258,-0.21519 0.0468,-2.15794 -0.04134,-2.2461 -0.05373,-0.0537 -0.328915,-0.0837 -0.76905,-0.0837 -0.807942,0 -0.834001,0.0248 -0.648135,0.61755 0.244599,0.78002 0.613301,1.38375 1.011594,1.65633 0.284043,0.19441 0.388754,0.2075 0.446933,0.0559 z m 0.750026,2.1e-4 c 0.177856,-0.092 0.206419,-0.14063 0.173851,-0.29629 -0.02134,-0.10244 -0.07544,-0.3588 -0.120073,-0.56969 -0.06782,-0.3206 -0.06224,-0.45197 0.03417,-0.80172 0.177619,-0.6445 0.181229,-0.62744 -0.133379,-0.62744 h -0.278852 l -0.01897,1.20259 c -0.01291,0.82183 0.0047,1.20259 0.05575,1.20259 0.04113,0 0.170558,-0.0495 0.2876,-0.11004 z m -2.166052,-0.72887 c -0.148951,-0.2863 -0.325885,-0.72446 -0.393154,-0.97369 -0.0673,-0.24923 -0.15264,-0.49236 -0.189687,-0.54029 -0.102024,-0.13199 -1.157752,-0.11931 -1.209106,0.0145 -0.06687,0.17422 0.26855,0.74503 0.720726,1.22652 0.421928,0.44932 1.185524,0.94862 1.290946,0.84415 0.02811,-0.0279 -0.07075,-0.2849 -0.219725,-0.5712 z m -0.64816,-2.78069 c 0.01475,-0.59003 -0.0034,-0.81084 -0.06972,-0.85295 -0.04925,-0.0312 -0.32881,-0.0573 -0.621285,-0.0579 -0.41036,-7.9e-4 -0.553594,0.0252 -0.62745,0.11415 -0.121417,0.14624 -0.169425,1.1728 -0.06727,1.43857 l 0.07473,0.19435 0.645578,-0.0201 0.645605,-0.02 0.01976,-0.79613 z m 2.064186,0.72071 c 0.07059,-0.184 0.0473,-1.3536 -0.02985,-1.49776 -0.06361,-0.11881 -0.151059,-0.13482 -0.736588,-0.13482 -0.938528,0 -0.934127,-0.004 -0.934127,0.83334 0,0.37894 0.01897,0.73862 0.04232,0.79927 0.03512,0.0915 0.175959,0.11027 0.829127,0.11027 0.65314,0 0.794002,-0.0187 0.829126,-0.11027 z m 1.747496,-0.0809 0.316558,-0.19121 v -0.59658 c 0,-0.37104 -0.03162,-0.6282 -0.08366,-0.68023 -0.08758,-0.0876 -1.272476,-0.12068 -1.479237,-0.0413 -0.09148,0.0351 -0.110271,0.1756 -0.110271,0.82496 0,0.43046 0.02082,0.80357 0.04648,0.82913 0.02556,0.0256 0.259565,0.0465 0.520025,0.0465 0.392865,0 0.527482,-0.0326 0.790103,-0.19121 z m 2.094304,-0.73649 c 0,-0.52958 -0.02319,-0.69573 -0.10458,-0.74704 -0.115672,-0.073 -1.040156,-0.0926 -1.214323,-0.0258 -0.08732,0.0335 -0.110271,0.15389 -0.110271,0.57863 0,0.32419 0.03309,0.56941 0.08366,0.61998 0.04601,0.046 0.210714,0.0854 0.366015,0.0876 0.155275,0.002 0.392127,0.0458 0.526349,0.097 0.438317,0.16718 0.453152,0.1472 0.453152,-0.61036 z m -5.635144,-1.79117 c 0.09367,-0.32592 0.279827,-0.79241 0.41368,-1.03665 0.133853,-0.24424 0.224336,-0.46309 0.201096,-0.48633 -0.08542,-0.0854 -0.842169,0.38171 -1.22315,0.75506 -0.400822,0.3928 -0.83076,1.05221 -0.831946,1.27597 0,0.11207 0.06334,0.1226 0.634697,0.10457 l 0.635329,-0.0201 z m 1.802039,0.47058 c 0.02134,-0.0863 0.02977,-0.61176 0.01871,-1.16773 -0.01976,-1.00283 -0.02134,-1.01106 -0.184655,-1.03418 -0.267284,-0.0378 -0.843433,0.61238 -1.10998,1.25272 -0.120495,0.28939 -0.239909,0.65663 -0.265415,0.8161 l -0.04637,0.28994 h 0.774452 c 0.745178,0 0.775927,-0.006 0.813238,-0.15685 z m 1.91592,-0.007 c 0,-0.22482 -0.23456,-0.88666 -0.462953,-1.3063 -0.223335,-0.41034 -0.729501,-0.90065 -0.92978,-0.90065 -0.135988,0 -0.140994,0.0421 -0.140994,1.18516 v 1.18516 h 0.766864 c 0.757851,0 0.766863,-0.002 0.766863,-0.16337 z m 1.673166,0.0565 c 0,-0.40293 -0.742543,-1.33309 -1.414919,-1.77242 -0.385487,-0.25189 -0.728473,-0.37041 -0.664339,-0.22957 0.01318,0.0288 0.136857,0.27189 0.275032,0.54029 0.249552,0.48475 0.332024,0.70409 0.478393,1.2723 l 0.07633,0.29629 h 0.624762 c 0.514861,0 0.624737,-0.0188 0.624737,-0.10689 z m -13.192031,6.69577 c -0.219593,-0.0558 -0.564687,-0.18505 -0.766863,-0.28727 -0.435814,-0.22035 -1.169319,-0.78125 -1.169319,-0.89415 0,-0.0437 0.155749,-0.23287 0.346068,-0.42034 0.390494,-0.38463 0.35703,-0.387 1.013386,0.0717 0.499473,0.34903 0.984796,0.47442 1.669556,0.43138 1.308679,-0.0823 1.883826,-0.66692 1.970383,-2.0029 0.0224,-0.34591 0.01713,-0.62892 -0.01159,-0.62892 -0.0288,0 -0.207499,0.13948 -0.397107,0.30997 -1.078099,0.96929 -2.917027,0.85137 -4.055438,-0.26005 -1.570906,-1.53371 -1.119757,-4.29913 0.859085,-5.26571 1.066215,-0.5208 2.402719,-0.36425 3.223861,0.37761 0.152219,0.13751 0.302804,0.22355 0.334633,0.19121 0.03186,-0.0324 0.06772,-0.19999 0.07973,-0.37253 l 0.02187,-0.31372 0.575148,-0.0202 0.575147,-0.0203 v 3.26479 c 0,2.6725 -0.01897,3.33739 -0.104237,3.665 -0.265677,1.01996 -0.918686,1.73182 -1.910096,2.08224 -0.521554,0.18434 -1.701439,0.23262 -2.254137,0.0922 z m 1.897054,-4.16695 c 1.274505,-0.60977 1.538206,-2.40729 0.491147,-3.34771 -1.029617,-0.92476 -2.6836,-0.62845 -3.324462,0.59558 -0.07141,0.13639 -0.130376,0.45029 -0.14911,0.79366 -0.02709,0.49682 -0.0092,0.61482 0.14189,0.94116 0.282752,0.61044 0.80391,1.05203 1.38359,1.17238 0.434733,0.0903 1.089955,0.0205 1.456945,-0.15507 z m -16.347121,1.32027 c -2.011725,-0.51747 -3.059628,-2.72197 -2.162969,-4.55024 0.769946,-1.56987 2.625079,-2.28821 4.130059,-1.5992 0.461003,0.21104 1.143022,0.85117 1.40841,1.32184 0.388096,0.68831 0.585661,0.53552 -2.048113,1.58397 -1.839903,0.73243 -2.337769,0.95691 -2.337979,1.05415 -1.58e-4,0.068 0.12666,0.26125 0.281777,0.42954 0.661414,0.71756 1.628794,0.84206 2.631139,0.33863 l 0.36857,-0.18512 0.409887,0.40562 c 0.225442,0.22309 0.394735,0.44516 0.376185,0.49349 -0.04477,0.11664 -0.769103,0.49916 -1.188817,0.62781 -0.478078,0.14654 -1.447196,0.18778 -1.868149,0.0795 z m 0.429147,-3.71444 c 0.799247,-0.32983 1.492385,-0.61553 1.540314,-0.6349 0.270763,-0.1094 -0.10176,-0.57298 -0.60234,-0.7496 -0.70763,-0.24967 -1.452993,-0.0755 -2.017732,0.47158 -0.374869,0.36312 -0.565003,0.72283 -0.617807,1.16879 -0.0371,0.31313 -0.02801,0.34381 0.101839,0.34381 0.07841,0 0.79648,-0.26986 1.595726,-0.59968 z m -6.6896071,3.62296 c -0.026823,-0.0268 -0.048772,-2.07671 -0.048772,-4.55531 0,-3.49637 -0.019498,-4.53277 -0.087136,-4.62353 -0.07499,-0.10066 -0.2622523,-0.11954 -1.3420108,-0.13533 l -1.2548745,-0.0183 v -0.69716 -0.69715 l 3.4683281,-0.0181 3.4683283,-0.0181 v 0.73266 0.73266 h -1.281197 c -0.9875372,0 -1.2990096,0.0215 -1.3589274,0.0937 -0.055017,0.0663 -0.082999,1.42644 -0.095673,4.65349 l -0.017917,4.55982 -0.7007008,0.0197 c -0.3853552,0.0109 -0.7225969,-0.002 -0.7494203,-0.029 z m 11.1831781,-0.051 c -0.05681,-0.0684 -0.07391,-0.93567 -0.06084,-3.0849 l 0.01818,-2.9897 h 0.522871 0.522871 l 0.04079,0.64498 c 0.0224,0.35474 0.06482,0.66846 0.0942,0.69715 0.02938,0.0287 0.09857,-0.0106 0.153746,-0.0873 0.625422,-0.86934 0.900796,-1.1095 1.50888,-1.31592 0.417185,-0.14162 1.236904,-0.14656 1.695958,-0.0102 0.441162,0.13101 0.875395,0.50172 1.08408,0.92549 0.161572,0.32807 0.162995,0.35257 0.162995,2.80585 v 2.47489 l -0.511883,0.0206 c -0.317375,0.0128 -0.549168,-0.0103 -0.610008,-0.0608 -0.08023,-0.0666 -0.09812,-0.44929 -0.09812,-2.09688 0,-2.19107 -0.01607,-2.29964 -0.392285,-2.6514 -0.259933,-0.24302 -0.514887,-0.33558 -0.92443,-0.33558 -0.715694,0 -1.439714,0.42627 -1.785624,1.05127 l -0.209133,0.37789 -0.02187,1.77598 c -0.0137,1.11432 -0.04941,1.80911 -0.0957,1.86489 -0.103789,0.12507 -0.989856,0.11998 -1.094646,-0.006 z"
       style="fill:#872c86;stroke-width:0.06971525" />
    <path
       inkscape:connector-curvature="0"
       id="path911"
       d="m 42.266541,286.71527 -0.816742,-0.81674 -0.333184,0.0976 c -0.651586,0.19088 -1.088665,0.17633 -1.57773,-0.0525 -0.437263,-0.20462 -0.4458,-0.20567 -0.923008,-0.11336 -0.624446,0.12078 -0.997734,0.11924 -1.597096,-0.007 -1.94601,-0.40857 -3.306676,-2.2138 -3.151059,-4.18059 0.165288,-2.08889 1.869282,-3.67477 3.952782,-3.67876 1.49228,-0.003 2.880217,0.84541 3.539945,2.16354 0.375395,0.75002 0.46132,1.19398 0.412442,2.13138 -0.03757,0.72099 -0.03122,0.77009 0.131482,1.01594 0.398108,0.60161 0.378979,1.50567 -0.04421,2.0899 -0.112932,0.15587 -0.205312,0.32345 -0.205312,0.37239 0,0.049 0.331524,0.41784 0.736694,0.81976 0.770262,0.76407 0.939239,0.97477 0.781698,0.97477 -0.04948,0 -0.457499,-0.36753 -0.906698,-0.81673 z m -1.272449,-0.91717 c 0.323935,-0.14715 0.686077,-0.48779 0.844724,-0.79455 0.0606,-0.11718 0.12666,-0.39503 0.146844,-0.61745 0.109665,-1.20934 -1.19991,-2.09555 -2.317691,-1.56843 -0.415393,0.19589 -0.604737,0.38866 -0.795873,0.81027 -0.369204,0.81439 0.03378,1.84041 0.865593,2.20378 0.303726,0.13269 0.927013,0.11602 1.256403,-0.0336 z m -3.326939,-0.23207 c 0.120151,-0.12016 0.116278,-2.21539 -0.0045,-2.38044 -0.07586,-0.10373 -0.194245,-0.11765 -0.854026,-0.10047 -0.764255,0.0199 -0.765994,0.0204 -0.786757,0.1987 -0.0322,0.27658 0.37558,1.31571 0.667897,1.70193 0.257351,0.34004 0.654115,0.66394 0.81329,0.66394 0.04419,0 0.117965,-0.0377 0.16397,-0.0837 z m 0.763359,-0.055 c 0.25909,-0.15797 0.265203,-0.196 0.120046,-0.7468 -0.116041,-0.44019 -0.09051,-0.80977 0.08421,-1.21967 0.156987,-0.36829 0.09193,-0.47433 -0.290921,-0.47433 -0.276823,0 -0.326385,0.023 -0.385618,0.17883 -0.09082,0.23889 -0.08743,2.09467 0.0042,2.26579 0.09101,0.17007 0.184153,0.16931 0.468117,-0.004 z m -1.829733,-0.14067 c 0.02398,-0.0386 -0.02292,-0.16344 -0.104157,-0.27741 -0.226234,-0.31772 -0.532225,-1.03667 -0.631298,-1.48325 -0.04901,-0.22092 -0.127977,-0.43395 -0.175511,-0.47339 -0.0493,-0.0409 -0.351365,-0.063 -0.703309,-0.0515 -0.605818,0.0199 -0.61728,0.0235 -0.637885,0.2008 -0.02822,0.24288 0.581287,1.15022 1.018629,1.51638 0.347913,0.29129 0.946142,0.63852 1.1001,0.63852 0.04954,0 0.109586,-0.0316 0.133431,-0.0702 z m -0.956629,-3.41007 c 0.01476,-0.64593 -0.0032,-0.88035 -0.06972,-0.92266 -0.04917,-0.0312 -0.342195,-0.0572 -0.65119,-0.0578 -0.809312,-0.002 -0.832499,0.024 -0.832499,0.91704 0,0.39611 0.02292,0.77621 0.05104,0.84466 0.04511,0.10999 0.134196,0.12214 0.76689,0.10457 l 0.715825,-0.0199 z m 2.034491,0.76595 c 0.03968,-0.0742 0.07217,-0.44839 0.07217,-0.8316 0,-0.91525 0,-0.91586 -0.941162,-0.91586 -0.940531,0 -0.941163,5.2e-4 -0.941163,0.91586 0,0.98938 -0.0224,0.96645 0.941163,0.96645 0.716431,0 0.804094,-0.0136 0.868992,-0.13485 z m 1.745336,-0.0667 0.313712,-0.19063 0.02029,-0.65676 c 0.01713,-0.55738 0.0026,-0.67013 -0.100469,-0.74506 -0.143682,-0.10506 -1.467354,-0.12143 -1.627819,-0.0201 -0.130033,0.0821 -0.189187,1.32952 -0.07691,1.62245 0.0717,0.18714 0.0864,0.19158 0.615488,0.18624 0.461899,-0.005 0.588374,-0.0337 0.855738,-0.19611 z m 2.118834,-0.11783 c 0.02319,-0.0606 0.04232,-0.37437 0.04232,-0.69715 0,-0.79736 -0.06772,-0.86574 -0.857478,-0.86574 -0.357109,0 -0.610666,0.032 -0.66231,0.0837 -0.0513,0.0513 -0.08366,0.30209 -0.08366,0.64835 0,0.34625 0.03236,0.59705 0.08366,0.64835 0.04601,0.046 0.226417,0.086 0.400874,0.089 0.174458,0.003 0.426987,0.0476 0.561209,0.0993 0.329838,0.12703 0.465035,0.12553 0.515388,-0.006 z m -6.031987,-1.74582 c 0.184338,-0.0369 0.228552,-0.0874 0.289919,-0.33115 0.141784,-0.56316 0.420821,-1.2683 0.622391,-1.57275 0.112537,-0.17 0.188791,-0.3347 0.169451,-0.36601 -0.07251,-0.11733 -0.334976,-0.0493 -0.725917,0.1882 -0.907673,0.55138 -1.862958,1.95876 -1.409912,2.07715 0.190925,0.0499 0.813949,0.0526 1.054068,0.005 z m 2.147159,-0.0493 c 0.03188,-0.0319 0.06756,-0.56517 0.07928,-1.18516 0.02653,-1.40418 -0.0095,-1.49357 -0.48896,-1.21259 -0.171743,0.10065 -0.396501,0.29345 -0.499473,0.42843 -0.261831,0.34328 -0.58184,1.04299 -0.682283,1.49182 -0.11894,0.5315 -0.03328,0.5871 0.859428,0.55764 0.370731,-0.0122 0.700147,-0.0483 0.732003,-0.0801 z m 1.757272,0.0492 c 0.188686,-0.0377 0.21767,-0.0727 0.216379,-0.26143 -0.004,-0.57227 -0.598967,-1.74395 -1.058363,-2.08377 -0.585608,-0.4332 -0.643076,-0.35643 -0.6709,0.89625 -0.02582,1.16342 2.11e-4,1.33436 0.21651,1.42141 0.18173,0.0731 0.983321,0.0902 1.296374,0.0275 z m 1.729343,7.9e-4 c 0.225284,-0.0604 0.241647,-0.1923 0.06669,-0.5379 -0.364408,-0.71976 -0.978209,-1.33198 -1.703704,-1.69928 -0.465114,-0.23547 -0.516943,-0.12505 -0.21132,0.45031 0.262753,0.49461 0.421322,0.8996 0.547191,1.39743 0.05067,0.20037 0.12666,0.32037 0.229026,0.36159 0.175907,0.0708 0.846859,0.0883 1.072118,0.0279 z m -13.109717,6.4156 c -0.525532,-0.1272 -1.162573,-0.46795 -1.57022,-0.83991 l -0.321459,-0.29332 0.310814,-0.31924 c 0.170953,-0.17558 0.335345,-0.31924 0.36533,-0.31924 0.02998,0 0.25996,0.14065 0.511067,0.31256 0.610587,0.41802 1.087953,0.55179 1.808679,0.50682 0.716984,-0.0447 1.207077,-0.2488 1.559759,-0.64948 0.330049,-0.37496 0.423878,-0.66548 0.476997,-1.47706 0.05046,-0.77089 0.0066,-0.80044 -0.494861,-0.33347 -0.495442,0.46138 -0.964561,0.62174 -1.818877,0.62174 -0.829468,0 -1.27266,-0.14459 -1.899267,-0.61963 -0.701149,-0.53156 -1.118887,-1.33092 -1.183995,-2.26554 -0.06825,-0.98015 0.258826,-1.87831 0.927539,-2.54702 1.095516,-1.09553 2.906277,-1.18942 3.993597,-0.20708 0.361088,0.32623 0.482742,0.28986 0.51104,-0.1528 l 0.02134,-0.33485 0.505428,-0.0205 0.505428,-0.0205 v 3.23017 c 0,3.51124 -0.01607,3.68741 -0.39824,4.38979 -0.615804,1.13142 -2.267943,1.71182 -3.810181,1.33853 z m 1.876502,-3.99752 c 0.636831,-0.2805 1.095384,-0.87421 1.202334,-1.55669 0.224073,-1.42999 -0.774899,-2.54735 -2.216747,-2.47945 -0.611799,0.0288 -1.029484,0.20424 -1.425537,0.59874 -0.407278,0.40569 -0.546085,0.73639 -0.581761,1.38603 -0.02722,0.49559 -0.0092,0.61562 0.140335,0.94116 0.427303,0.92959 1.161493,1.35727 2.180675,1.27029 0.230054,-0.0196 0.545373,-0.0917 0.700701,-0.16008 z m -16.333341,1.14681 c -1.248181,-0.35151 -2.215113,-1.41446 -2.379558,-2.61591 -0.283041,-2.06774 1.515572,-3.9026 3.544108,-3.61554 0.655117,0.0927 1.129822,0.33784 1.631877,0.8427 0.425011,0.42739 0.862484,1.14718 0.758142,1.24741 -0.02883,0.0277 -1.056282,0.44887 -2.283279,0.93599 -1.22697,0.48712 -2.266863,0.91429 -2.310839,0.94927 -0.128347,0.10209 -0.02909,0.31992 0.300063,0.65859 0.688475,0.70839 1.641125,0.82654 2.66339,0.33032 l 0.373762,-0.18142 0.38683,0.38682 0.386831,0.38683 -0.342301,0.21717 c -0.729026,0.46257 -1.97178,0.67103 -2.729026,0.45777 z m 0.438712,-3.55787 c 0.798641,-0.32636 1.523451,-0.64014 1.610666,-0.69729 0.272476,-0.17853 0.05628,-0.5142 -0.499209,-0.77513 -1.205128,-0.56604 -2.733874,0.33304 -2.873946,1.69022 -0.03763,0.36463 -0.03367,0.37558 0.13583,0.37558 0.09602,0 0.828019,-0.26702 1.626659,-0.59338 z m -6.6826771,3.4773 c -0.026876,-0.0269 -0.048851,-2.11079 -0.048851,-4.63096 0,-4.11399 -0.01133,-4.58645 -0.1102709,-4.62444 -0.060656,-0.0233 -0.6566979,-0.0423 -1.3245941,-0.0423 h -1.214297 v -0.66229 -0.6623 h 3.4160515 3.4160256 v 0.6623 0.66229 h -1.281198 c -0.9875363,0 -1.2990087,0.0215 -1.3589265,0.0937 -0.055017,0.0663 -0.083,1.42644 -0.095674,4.65349 l -0.017917,4.55982 -0.665762,0.0198 c -0.3661467,0.0109 -0.6877107,-0.002 -0.7145868,-0.029 z m 11.2245461,4.2e-4 c -0.02709,-0.0271 -0.04922,-1.39301 -0.04922,-3.03538 v -2.98614 h 0.487984 0.488012 v 0.40856 c 0,0.62075 0.0748,1.05546 0.181624,1.05546 0.05112,0 0.198803,-0.1647 0.328151,-0.366 0.290446,-0.45196 0.788522,-0.9166 1.13994,-1.06343 0.959053,-0.40072 2.233373,-0.14702 2.743122,0.5461 0.323672,0.44013 0.357953,0.77012 0.334396,3.21879 l -0.02134,2.23089 h -0.522871 -0.522845 l -0.03486,-2.1316 -0.03486,-2.13159 -0.196327,-0.29649 c -0.639018,-0.96499 -2.393813,-0.63132 -3.030802,0.5763 -0.188185,0.35677 -0.189055,0.36534 -0.223783,2.17078 l -0.03486,1.8126 -0.491041,0.0202 c -0.270078,0.0111 -0.513227,-0.002 -0.540314,-0.029 z"
       style="fill:#6a09ad;stroke-width:0.06971525;fill-opacity:1" />
  </g>
</svg>
